<svg id="ePIfgzqhjRL1" xmlns="http://www.w3.org/2000/svg" xmlns:xlink="http://www.w3.org/1999/xlink" viewBox="0 0 33.628894 33.629075" shape-rendering="geometricPrecision" text-rendering="geometricPrecision" project-id="91d01b28b62d496eb1238c5c24bb75a3" export-id="b284f59de23140fdac77442d87737c58" cached="false"><defs><linearGradient id="ePIfgzqhjRL5-fill" x1="79.7708" y1="179.79" x2="109.2172" y2="179.79" spreadMethod="pad" gradientUnits="userSpaceOnUse" gradientTransform="translate(0 0)"><stop id="ePIfgzqhjRL5-fill-0" offset="0%" stop-color="#fde009"/><stop id="ePIfgzqhjRL5-fill-1" offset="45.571242%" stop-color="#fde009"/><stop id="ePIfgzqhjRL5-fill-2" offset="79.0087%" stop-color="#389d33"/><stop id="ePIfgzqhjRL5-fill-3" offset="100%" stop-color="#389d33"/></linearGradient><linearGradient id="ePIfgzqhjRL18-fill" x1="79.7708" y1="179.79" x2="109.2172" y2="179.79" spreadMethod="pad" gradientUnits="userSpaceOnUse" gradientTransform="translate(0 0)"><stop id="ePIfgzqhjRL18-fill-0" offset="0%" stop-color="#f3f3f3"/><stop id="ePIfgzqhjRL18-fill-1" offset="45.571242%" stop-color="#717171"/><stop id="ePIfgzqhjRL18-fill-2" offset="79.0087%" stop-color="#101010"/><stop id="ePIfgzqhjRL18-fill-3" offset="100%" stop-color="#090909"/></linearGradient></defs><g transform="translate(-77.9442-150.653)"><g transform="translate(.264584-.264577)"><path d="M94.494047,151.18219c-9.140472,0-16.549864,7.40974-16.549864,16.54986c0,1.19592.127706,2.3615.368653,3.4851h32.362424c.24094-1.1236.36865-2.28918.36865-3.4851c0-9.14012-7.40974-16.54986-16.549863-16.54986" fill="#173e7d" stroke-width="0.352778"/><path d="M79.770832,175.29755c2.74708,5.33541,8.308975,8.98455,14.72318,8.98455v0c6.414558,0,11.976098-3.64914,14.723178-8.98455v0h-29.446358Z" fill="url(#ePIfgzqhjRL5-fill)" stroke-width="0.352778"/><path d="M81.173794,167.45329c.363361,0,.524933-.14534.524933-.3997c0-.26246-.189794-.39158-.553155-.39158h-.500592v.79128h.528814Zm-.04445-1.25589c.343253,0,.500944-.12912.500944-.35948c0-.23389-.141463-.36336-.49283-.36336h-.492478v.72284h.484364Zm-1.130653-1.23155h1.195211c.549275,0,1.066095.13335,1.066095.73907c0,.42404-.266347.62583-.569384.68651v.008c.363362.0649.65017.25471.65017.73096c0,.60183-.528814.82373-1.086203.82373h-1.255889v-2.98827Z" fill="#fff" stroke-width="0.352778"/><path d="M83.313779,164.96575h.65405v2.98803h-.65405v-2.98803Z" fill="#fff" stroke-width="0.352778"/><path d="M87.036678,166.45998c0-.62583-.290689-1.00542-.751064-1.00542-.464255,0-.751064.37959-.751064,1.00542s.286809,1.02164.751064,1.02164c.460375,0,.751064-.39581.751064-1.02164m-2.160411,0c0-1.04987.686505-1.55046,1.409347-1.55046.718608,0,1.405114.50059,1.405114,1.55046s-.686506,1.55046-1.405114,1.55046c-.722842,0-1.409347-.50059-1.409347-1.55046" fill="#fff" stroke-width="0.352778"/><path d="M88.570944,164.96589h.868186l.666397,2.19675h.0081l.621595-2.19675h.888294v2.98803h-.633942v-2.03906h-.0081c-.0441.25824-.100895.44838-.165453.6664l-.448028,1.37266h-.581731l-.444147-1.37266c-.06844-.22613-.109008-.3556-.173566-.69885h-.0081v2.07151h-.589492l-.000013-2.98803Z" fill="#fff" stroke-width="0.352778"/><path d="M93.662585,164.08959h.65405l-.601486.6985h-.42792l.375356-.6985Zm-1.021644.8763h2.035175v.54927h-1.376892v.64206h.997303v.5207h-.997303v.7433h1.449564v.5327h-2.107847v-2.98803Z" fill="#fff" stroke-width="0.352778"/><path d="M96.695028,166.31862c.379589,0,.561269-.10901.561269-.41204c0-.29457-.18168-.40358-.561269-.40358h-.448381v.81562h.448381Zm-1.094317-1.3529h1.122539c.735189,0,1.175103.26282,1.175103.92498c0,.47237-.22225.7306-.621947.85196l.666397,1.21144h-.694619l-.621948-1.12677h-.379589v1.12677h-.645936v-2.98838Z" fill="#fff" stroke-width="0.352778"/><path d="M98.883273,164.96575h.65405v2.98803h-.65405v-2.98803Z" fill="#fff" stroke-width="0.352778"/><path d="M100.58726,164.96589h2.03517v.54927h-1.37689v.64206h.99731v.5207h-.99731v.74295h1.44957v.53305h-2.10785v-2.98803Z" fill="#fff" stroke-width="0.352778"/><path d="M103.4581,166.81127v-1.84538h.65828v1.82915c0,.43215.16546.67451.55704.67451.3877,0,.54927-.23812.54927-.67451v-1.82915h.64629v1.8415c0,.73484-.37182,1.19521-1.20367,1.19521s-1.20721-.46037-1.20721-1.19133" fill="#fff" stroke-width="0.352778"/><path d="M107.5766,166.37513l-.87207-1.40935h.75107l.53304.89641.50448-.89641h.67839l-.85196,1.41323.96908,1.57515h-.73096l-.63394-1.04598-.61348,1.04598h-.69074l.95709-1.57903Z" fill="#fff" stroke-width="0.352778"/></g><g transform="translate(.264584-.264577)"><path d="M94.494047,151.18219c-9.140472,0-16.549864,7.40974-16.549864,16.54986c0,1.19592.127706,2.3615.368653,3.4851h32.362424c.24094-1.1236.36865-2.28918.36865-3.4851c0-9.14012-7.40974-16.54986-16.549863-16.54986" fill="#05100b" stroke-width="0.352778"/><path d="M79.770832,175.29755c2.74708,5.33541,8.308975,8.98455,14.72318,8.98455v0c6.414558,0,11.976098-3.64914,14.723178-8.98455v0h-29.446358Z" fill="url(#ePIfgzqhjRL18-fill)" stroke-width="0.352778"/><path d="M81.173794,167.45329c.363361,0,.524933-.14534.524933-.3997c0-.26246-.189794-.39158-.553155-.39158h-.500592v.79128h.528814Zm-.04445-1.25589c.343253,0,.500944-.12912.500944-.35948c0-.23389-.141463-.36336-.49283-.36336h-.492478v.72284h.484364Zm-1.130653-1.23155h1.195211c.549275,0,1.066095.13335,1.066095.73907c0,.42404-.266347.62583-.569384.68651v.008c.363362.0649.65017.25471.65017.73096c0,.60183-.528814.82373-1.086203.82373h-1.255889v-2.98827Z" fill="#fff" stroke-width="0.352778"/><path d="M83.313779,164.96575h.65405v2.98803h-.65405v-2.98803Z" fill="#fff" stroke-width="0.352778"/><path d="M87.036678,166.45998c0-.62583-.290689-1.00542-.751064-1.00542-.464255,0-.751064.37959-.751064,1.00542s.286809,1.02164.751064,1.02164c.460375,0,.751064-.39581.751064-1.02164m-2.160411,0c0-1.04987.686505-1.55046,1.409347-1.55046.718608,0,1.405114.50059,1.405114,1.55046s-.686506,1.55046-1.405114,1.55046c-.722842,0-1.409347-.50059-1.409347-1.55046" fill="#fff" stroke-width="0.352778"/><path d="M88.570944,164.96589h.868186l.666397,2.19675h.0081l.621595-2.19675h.888294v2.98803h-.633942v-2.03906h-.0081c-.0441.25824-.100895.44838-.165453.6664l-.448028,1.37266h-.581731l-.444147-1.37266c-.06844-.22613-.109008-.3556-.173566-.69885h-.0081v2.07151h-.589492l-.000013-2.98803Z" fill="#fff" stroke-width="0.352778"/><path d="M93.662585,164.08959h.65405l-.601486.6985h-.42792l.375356-.6985Zm-1.021644.8763h2.035175v.54927h-1.376892v.64206h.997303v.5207h-.997303v.7433h1.449564v.5327h-2.107847v-2.98803Z" fill="#fff" stroke-width="0.352778"/><path d="M96.695028,166.31862c.379589,0,.561269-.10901.561269-.41204c0-.29457-.18168-.40358-.561269-.40358h-.448381v.81562h.448381Zm-1.094317-1.3529h1.122539c.735189,0,1.175103.26282,1.175103.92498c0,.47237-.22225.7306-.621947.85196l.666397,1.21144h-.694619l-.621948-1.12677h-.379589v1.12677h-.645936v-2.98838Z" fill="#fff" stroke-width="0.352778"/><path d="M98.883273,164.96575h.65405v2.98803h-.65405v-2.98803Z" fill="#fff" stroke-width="0.352778"/><path d="M100.58726,164.96589h2.03517v.54927h-1.37689v.64206h.99731v.5207h-.99731v.74295h1.44957v.53305h-2.10785v-2.98803Z" fill="#fff" stroke-width="0.352778"/><path d="M103.4581,166.81127v-1.84538h.65828v1.82915c0,.43215.16546.67451.55704.67451.3877,0,.54927-.23812.54927-.67451v-1.82915h.64629v1.8415c0,.73484-.37182,1.19521-1.20367,1.19521s-1.20721-.46037-1.20721-1.19133" fill="#fff" stroke-width="0.352778"/><path d="M107.5766,166.37513l-.87207-1.40935h.75107l.53304.89641.50448-.89641h.67839l-.85196,1.41323.96908,1.57515h-.73096l-.63394-1.04598-.61348,1.04598h-.69074l.95709-1.57903Z" fill="#fff" stroke-width="0.352778"/></g></g></svg>
