<svg id="ewW4PoAsl8y1" xmlns="http://www.w3.org/2000/svg" xmlns:xlink="http://www.w3.org/1999/xlink" viewBox="-7.982381 -7.982381 876.449263 282.044143" shape-rendering="geometricPrecision" text-rendering="geometricPrecision" project-id="6f5c866de9e34b78bd98d19d9952d15d" export-id="44cc1b51d3bd49adb767a25e4eb20671" cached="false"><path d="M502.176,97.794001c.398.102.815.156,1.245.155c2.785,0,5.046-2.265,5.046-5.06.002-.063-.003-.125-.003-.188c0-1.627-1.027-4.03-3.008-5.26-4.885-3.382-12.338-4.65-18.826-4.65-6.496,0-13.365,1.642-17.633,4.879-4.318,3.279-6.506,7.903-6.506,13.740999c0,10.701,7.912,18.479,23.52,21.701c6.895,1.445,14.41,4.993,14.41,11.134c0,3.1-1.477,6.47-3.986,8.285-4.021,2.924-9.832,3.506-12.688,3.527-3.77.032-9.684-.789-14.668-3.582-.215-.15-.448-.276-.688-.406-.77-.422-1.652-.663-2.592-.663-2.985,0-5.405,2.427-5.405,5.425c0,1.275.438,2.447,1.173,3.373.445.605,1.002,1.15,1.668,1.566c6.738,4.665,16.334,5.368,20.697,5.368c4.121,0,8.119-.853,12.533-2.219c3.17-.984,5.918-2.418,8.176-4.272c2.254-1.855,4.047-4.125,5.324-6.744c1.279-2.626,2.191-6.526,2.191-9.658c0-14.354-12.744-20.028-23.867-22.196-9.449-1.961-14.236-6.017-14.236-10.639c0-1.338.332-2.504999.988-3.473999.678-.988,1.543-1.78,2.584-2.354c1.068-.587,2.32-1.021,3.715-1.293c1.43-.272,3.021-.423,5.289-.414c3.201.013,10.01,1.459,12.949,2.912.824.406,1.703.785,2.598,1.006v0Zm-52.441-5.638c-8.071-9.46-21.036-9.375-23.689-9.36-2.455.014-15.282.076-23.046,9.36-3.517,4.206-4.911,8.813999-5.875,12.879999-1.212,5.114-1.371,9.833-1.371,14.89c0,9.513.813,20.457,7.247,27.852c6.444,7.414,15.753,9.361,23.367,9.361c8.414,0,17.572-.697,24.309-5.345c1.311-.813,2.214-2.136,2.662-3.406.22-.578.34-1.205.34-1.86c0-2.892-2.341-5.232-5.23-5.232-.674,0-1.309.147-1.907.358-.339.119-.767.377-1.71.879-4.977,2.783-9.727,4.074-18.463,3.873-5.871,0-11.406-1.608-15.049-6.165-3.403-4.254-3.916-11.019-3.991-18.503h43.851c3.286,0,5.947-2.661,5.947-5.945-.002-15.998999-7.392-23.636999-7.392-23.636999v0ZM407.615,111.527c-.024-1.199-.176-9.559,6.669-14.673999c4.181-3.124,8.749-3.332,11.538-3.332c2.788,0,8.06-.109,12.691,3.406c6.846,5.195999,6.912,13.438999,6.889,14.599999h-37.787v0ZM386.797,90.082001c0-3.1-2.512-5.611-5.61-5.611-3.099,0-5.611,2.511-5.611,5.611L375.567,142.807c0,.955-.699,1.83-1.422,2.126s-3.833,1.511-14.425,1.511c-5.313,0-10.944-2.122-14.39-6.677-3.475-4.595-3.894-12.599-3.894-20.79l-.001-28.894999c0-3.1-2.512-5.611-5.61-5.611-3.099,0-5.611,2.511-5.611,5.611L330.21,118.955c0,10.09.637,20.928,7.193,28.862c5.727,6.93,15.314,9.359,22.318,9.359c4.444,0,14.167.308,22.929-2.951c2.411-.808,4.132-3.939,4.132-6.621l.015-57.521999v0Zm-65.294,2.935c0-2.453-1.45-4.565-3.537-5.528-9.48-4.073-20.232-4.671-25.096-4.671-7.403,0-16.923,1.923-23.367,9.339-6.434,7.392-7.359,18.698999-7.359,28.789999s.925,19.391,7.359,26.785c6.444,7.415,15.73,9.418,23.367,9.418c7.029,0,14.785-3.151,17.238-5.816v9.638c0,5.176-1.235,9.26-3.723,12.129-2.459,2.843-5.952,4.283-10.379,4.283-2.923,0-5.947-.383-8.991-1.131-3.026-.748-8.158-3.191-9.977-4.067-1.819-.875-5.187-.202-6.716,2.259-1.529,2.462-.512,6.137,1.895,7.46c2.407,1.324,5.464,3.132,11.876,4.786c4.091,1.055,8.1,1.55,11.912,1.55c4.183,0,7.918-.673,11.103-2.081c3.186-1.404,5.873-3.344,7.983-5.764c2.105-2.408,3.719-5.342,4.797-8.702c1.072-3.334,1.615-6.947,1.615-10.723v-67.953999v0ZM309.961,133.854c0,4.042-1.704,6.764-3.613,8.56-2.357,2.211-7.605,4.025-13.477,4.025-5.871,0-11.406-1.688-15.049-6.245-3.676-4.594-4.114-11.057-4.114-19.248c0-8.192.438-16.661,4.114-21.254999c3.643-4.556,9.3-6.187,15.049-6.187c4.459,0,10.53.967,15.593,2.752.873.304,1.498,1.134,1.498,2.11v35.487999h-.001Zm-77.984,4.011c-.315.666-.984,1.091-1.707,1.086-.878-.007-1.514-.925-1.751-1.265-1.785-2.555-15.727-41.201999-18.75-49.598999-1.055-2.845-4.261-4.317-7.101-3.268-2.833,1.047-4.312,4.237-3.278,7.081L217.513,139.964c2.126,5.684,5.189,8.906,9.683,10.52L216.18,179.662c-1.091,2.875.355,6.09,3.232,7.182c2.876,1.092,6.092-.354,7.183-3.229l34.708-91.674999c1.053-2.835-.393-6.028-3.199-7.103-2.83-1.084-6.066.36-7.151,3.211L231.977,137.865v0ZM192.173,90.082001c0-3.1-2.512-5.611-5.61-5.611-3.099,0-5.611,2.511-5.611,5.611L180.943,142.807c0,.955-.699,1.83-1.422,2.126s-3.832,1.511-14.425,1.511c-5.313,0-10.944-2.122-14.39-6.677-3.475-4.595-3.894-12.599-3.894-20.79l-.001-28.894999c0-3.1-2.512-5.611-5.61-5.611-3.099,0-5.611,2.511-5.611,5.611L135.586,118.955c0,10.09.637,20.928,7.193,28.862c5.726,6.93,15.314,9.359,22.318,9.359c4.444,0,14.167.308,22.929-2.951c2.411-.808,4.132-3.939,4.132-6.621l.015-57.521999v0Zm-70.932,2.202c-6.447-7.517-15.753-9.481-23.369-9.489s-16.923,1.972-23.368,9.489c-6.434,7.493-7.359,17.374999-7.359,27.014999c0,9.642.925,20.861,7.359,28.356c6.445,7.515,15.753,9.497,23.368,9.487c7.615-.008,16.922-1.972,23.369-9.487c6.434-7.495,7.359-18.128,7.359-28.356s-.925-19.522999-7.359-27.014999v0ZM112.922,140.014c-3.643,4.617-9.179,6.419-15.05,6.419s-11.407-1.802-15.05-6.419c-3.675-4.657-4.113-12.404-4.113-20.716s.438-14.721,4.113-19.376999c3.643-4.618,9.179-6.406,15.05-6.406s11.407,1.789,15.05,6.406c3.675,4.656999,4.114,11.074999,4.114,19.376999c0,8.304-.439,16.059-4.114,20.716v0ZM51.999,92.156001c-6.445-7.416-15.729-9.361-23.367-9.361-7.028,0-14.783,3.089-17.238,5.758v-33.638c0-3.144-2.547-5.691-5.689-5.691-3.144,0-5.69,2.547-5.69,5.691L0,146.756c0,2.709,1.69,5.023,4.076,5.947c9.343,3.87,19.785,4.433,24.556,4.433c7.406,0,16.922-1.9,23.367-9.314c6.436-7.395,7.361-17.75,7.361-27.84s-.925-20.433999-7.361-27.825999v0ZM43.682,140.286c-3.644,4.555-9.301,6.165-15.051,6.165-4.489,0-10.612-.951-15.697-2.759h.004c-.811-.264-1.396-1.024-1.396-1.922v-35.738c0-4.041,1.703-6.764999,3.611-8.557999c2.358-2.213,7.606-3.946,13.478-3.946s11.407,1.608,15.051,6.164C47.357,104.286,47.794001,111.792,47.794001,119.984s-.437001,15.707-4.112001,20.302v0Z" fill="#65706d"/><path d="M728.767,261.457c22.772,15.727,67.833-9.969,100.636-57.481c32.807-47.51,40.938-98.718,18.166-114.443999-22.778-15.727-66.702,8.657-99.509,56.169999-32.803,47.509-42.063,100.028-19.293,115.755v0Z" fill="#acb7b5"/><path d="M671.959,261.457c-22.772,15.727-67.833-9.969-100.636-57.481-32.807-47.51-40.938-98.718-18.166-114.443999c22.778-15.727,66.702,8.657,99.509,56.169999c32.803,47.509,42.063,100.028,19.293,115.755v0Z" fill="#05100b"/><ellipse rx="104.644" ry="50.042" transform="translate(700.344 50.042001)" fill="#65706d"/><path d="M507.595,187.202h-1.336c-.49,0-.893-.35-.893-.791v-8.418l-3.635,8.713c-.143.281-.469.465-.818.465h-1.328c-.352,0-.664-.18-.811-.465c0,0-.937778-9.348894-3.742-8.776-2.49281.509273,0,8.481,0,8.481c0,.441-.4.791-.881.791h-1.34c-.486,0-.883-.35-.883-.791v-15.571c0-.434.396-.783.883-.783h1.34c.338,0,.656.177.799.459l5.314,12.57l5.184-12.564c.135-.282.459-.465.811-.465h1.336c.488,0,.883.35.883.783v15.571c0,.442-.395.791-.883.791v0ZM476.956,171.59c-1.355-1.203-3.24-1.804-5.123-1.806-1.881.002-3.766.603-5.125,1.806-1.932,1.709-2.221,3.481-2.221,7.014c0,3.537.289,5.305,2.221,7.012c1.367,1.206,3.18,1.864,5.125,1.864c1.947,0,3.758-.658,5.123-1.864c1.934-1.707,2.221-3.475,2.221-7.012c0-3.532-.287-5.305-2.221-7.014v0Zm-2.367,12.228c-.713.641-1.734.96-2.756.96s-2.041-.319-2.762-.96c-1.01-.897-1.416-1.844-1.416-5.214c0-3.369.406-4.323,1.416-5.211.725-.639,1.703-.998,2.762-.998c1.057,0,2.041.359,2.756.998c1.018.888,1.422,1.842,1.422,5.211c0,3.37-.404,4.316-1.422,5.214v0Zm-23.943-1.808l-1.381-.219c-.412-.064-.82.141-.973.49-.227.713-.574,1.158-1.059,1.578-.717.639-1.701.998-2.758.998-1.059,0-2.041-.359-2.76-.998-1.014-.888-1.418-1.842-1.418-5.211c0-3.368.404-4.354,1.418-5.242.719-.639,1.701-.998,2.76-.998c1.057,0,2.041.359,2.758.998.484.42.832.864,1.059,1.577.152.354.561.552.973.491l1.381-.217c.266-.044.488-.188.629-.395.146-.201.166-.463.08-.688-.322-.982-.861-1.785-1.758-2.57-1.355-1.205-3.236-1.806-5.121-1.806-1.883,0-3.768.601-5.125,1.806-1.932,1.707-2.221,3.48-2.221,7.013s.289,5.338,2.221,7.037c1.357,1.207,3.242,1.808,5.125,1.808c1.885,0,3.766-.602,5.121-1.808.896-.782,1.436-1.583,1.758-2.565.086-.227.066-.485-.08-.69-.141-.201-.364-.344-.629-.389v0Zm-28.19,5.192h-10.675c-.488,0-.885-.35-.885-.791v-15.571c0-.434.396-.783.885-.783h10.675c.492,0,.891.35.891.783v1.262c0,.436-.398.79-.891.79h-8.453v4.278h7.066c.496,0,.887.352.887.777v1.203c0,.43-.391.779-.887.779h-7.066v4.438h8.453c.492,0,.891.35.891.786v1.257c0,.443-.399.792-.891.792v0Zm-25.425,0h-10.677c-.493,0-.883-.35-.883-.791v-15.571c0-.434.39-.783.883-.783h1.333c.495,0,.891.35.891.783v13.527h8.454c.488,0,.89.35.89.786v1.257c-.001.443-.402.792-.891.792v0Zm-27.748,0h-10.677c-.488,0-.881-.35-.881-.791v-15.571c0-.434.394-.783.881-.783h10.677c.493,0,.89.35.89.783v1.262c0,.436-.397.79-.89.79h-8.455v4.278h7.068c.495,0,.885.352.885.777v1.203c0,.43-.391.779-.885.779h-7.068v4.438h8.455c.493,0,.89.35.89.786v1.257c.001.443-.397.792-.89.792v0Zm-31.608,0h-1.339c-.489,0-.882-.35-.882-.791v-13.519h-4.36c-.488,0-.884-.354-.884-.79v-1.262c0-.434.396-.783.884-.783h11.845c.488,0,.886.35.886.783v1.262c0,.436-.398.79-.886.79h-4.381v13.519c0,.442-.397.791-.883.791v0Z" fill="#65706d"/></svg>
