<svg id="ehQcS3Y7iLC1" xmlns="http://www.w3.org/2000/svg" xmlns:xlink="http://www.w3.org/1999/xlink" viewBox="0 0 198 100" shape-rendering="geometricPrecision" text-rendering="geometricPrecision" project-id="01b4b7ac96714654aa31eaae4d4372c9" export-id="39c490c3b7e94c169e29458152c9a0ba" cached="false"><rect width="55" height="20" rx="0" ry="0" transform="translate(20 20)" fill="#fff"/><path d="M42.7378,37.6409c.2147-.2147.4314-.4452.6468-.6765.3849-.4578.806-.8877,1.2558-1.2865.1302-.1181.2676-.2278.4116-.3286.0189-.0189.0284-.0473.0378-.0756s.0189-.0567.0378-.0756c-.0944.0378-.17.0945-.2456.1511s-.1512.1134-.2457.1512c-.0378,0-.0756-.0377-.0378-.0755l.4038-.3029c-.0083.0005-.0171.0005-.0259.0005-.0377,0-.0377-.0377-.0377-.0756-.4873-.0749-.8629.2589-1.2009.5592l-.0086.0077c-.0504.0253-.1008,0-.14-.0196-.0195-.0098-.0363-.0182-.0489-.0182-.2971.0991-.5527.2812-.8102.4647h-.0001c-.2339.1667-.4694.3345-.7391.4424v-.0756c-.094.0313-.1869.0732-.28.1152-.1316.0594-.2637.119-.4003.1493-.2558.0568-.4902.0496-.7193.0425h-.0001-.0001v0h-.0001-.0001v0c-.0755-.0024-.1504-.0047-.2253-.0047-.4621.0562-.9209.1379-1.3741.2447l-.0198.0049-.009.0022-.0107.0028c-.2452.0661-.4816.1613-.7042.2836-.0088.0047-.0174.0098-.0258.015-.0188.0236-.0373.0462-.0547.0654-.0713.0911-.1593.1678-.2592.2261-.1643.0836-.3075.2112-.4497.3378-.0587.0523-.1172.1045-.177.1533-.0178.0124-.0389.0191-.0606.0192-.0623.0598-.1243.1198-.1864.1798v0v0v.0001h-.0001v0v0v.0001c-.1398.1351-.2796.2704-.4222.4026-.036.0167-.0763.0215-.1153.0138.0104-.0155.0178-.0274.025-.0394.0318-.0534.0641-.1065.0968-.1594.0366-.0591.0739-.1176.1121-.1755.0515-.0782.1045-.1555.1609-.2301.0131-.0142.0125-.0362-.0014-.0496-.0142-.0135-.0332-.0206-.0528-.0198.1933-.1808.4061-.3396.6344-.4734-.0252.0023-.0619-.0179-.0428-.0445.0141-.0196.0264-.0399.0386-.0603.0087-.0143.0173-.0286.0266-.0427.0043-.0112.0082-.0225.0121-.0337-.0059-.0065-.0118-.0125-.0177-.0186l-.0109-.0112c-.0622.0369-.1216.0784-.1776.1241-.0274.0247-.053.0572-.0792.0905v0c-.0602.0766-.1236.1572-.2192.1561-.0194-.0003-.0387-.0031-.0573-.0082-.014-.0019-.0275-.0065-.0397-.0135l.0049-.0087.0056-.0106.0055-.0098.018-.0325.0097-.0175.0083-.0151.0145-.0262c.009-.016.0177-.0317.0268-.0479l.0076-.0133.0041-.007.0081-.0139c.0113-.0195.0226-.0388.034-.0582l.0003-.0006.0145-.0246.0233-.0401.0166-.0285.0002-.0002.0001-.0003.0001-.0002h.0001l.0114-.0197.0117-.0198c.0078-.0124.009-.0277.0034-.0412-.0057-.0134-.0175-.0233-.0318-.0264.0703-.0917.1583-.1684.2588-.2255h-.0114c.0996-.0502.1992-.1077.2988-.1653l.0001-.0001.0003-.0001c.0449-.026.0899-.052.1348-.0773.014-.0119.0276-.0239.0413-.0358l.0212-.0182c-.2127.0719-.415.1717-.6016.2967-.0224.0088-.0437.0204-.0633.0345-.0355.0077-.0722-.0058-.0943-.0345-.0061-.008-.0093-.0178-.0091-.0278.0221-.044.0698-.0753.1207-.1086.0365-.0239.0746-.0489.1062-.0804.0376,0,.0754,0,.0754.0378.7505-.5863,1.6754-.7214,2.6035-.8569.5676-.0828,1.1365-.1659,1.6672-.3525l.3401-.2267c.0972-.0389.1844-.1078.277-.1809.0875-.0691.1797-.142.2898-.1971.3054-.2096.5317-.5157.6425-.8691-.004-.0287-.0172-.0553-.0377-.0757-.475.5121-1.0382.9346-1.6629,1.2472-.5723.2998-1.1839.3441-1.7923.3881-.2353.017-.4702.034-.7021.0658.0379-.0755.1135-.0755.189-.0755c0-.0898.0473-.1322.1045-.1834.0151-.0135.0309-.0276.0467-.0434h.1135c.0188,0,.0282-.0189.0376-.0378s.0189-.0378.0378-.0378c.0756,0,.1891-.0378.1513-.0378-.0576-.0768-.1444-.0464-.2407-.0126-.0933.0326-.1954.0684-.2884.0126.0365-.0365.0465-.0819.0557-.1233.0097-.0442.0185-.0839.0576-.1034h.1512c.0079-.0573.0345-.1105.0756-.1512.3367-.2021.6601-.3775.9781-.5499.2174-.1179.4323-.2344.6473-.3572-.044,0-.0822.017-.1192.0335-.0585.0261-.1137.0507-.1831.0044.0378,0,.0378-.0284.0378-.0567c0-.0284,0-.0568.0378-.0568.2379-.0648.451-.1668.6677-.2706.162-.0775.326-.1559.5038-.2206-.0518,0-.0993.0134-.1453.0263-.0881.0248-.1711.0482-.2704-.0263.0251-.0126.0461-.0294.0671-.0462.042-.0336.084-.0672.1596-.0672v-.1134c0-.0378.0379-.0378.0757-.0378-.0287-.004-.0553-.0172-.0757-.0378.0196-.039.0593-.0478.1035-.0576.0414-.0092.0868-.0192.1233-.0557-.0378,0-.1134,0-.1134-.0378.1134-.1512.3023-.1891.4914-.2268-.019-.0378-.0568-.0378-.0899-.0378s-.0614,0-.0614-.0378.0378-.0378.0756-.0378h-.0756c-.0586-.0293-.049-.0813-.0418-.1208v0c.0021-.0115.004-.0219.004-.0303.1512-.1764.2016-.3864.2519-.5963.0252-.105.0504-.21.0882-.3108-.0378,0-.0756,0-.0756-.0378-.3668.4036-.9475.5578-1.4996.7045l-.0498.0132h-.1889c-.2094.0822-.4443.0684-.6426-.0378-.0915-.0458-.1553-.1054-.2249-.1704-.0454-.0425-.0933-.0872-.1529-.132-.2956-.1887-.6128-.3411-.9449-.4538-.9384-.3068-1.9232-.4474-2.91-.4156.2716-.1482.5616-.2078.855-.2681.1557-.032.3124-.0642.4678-.1099.0939-.0276.1871-.0561.2797-.0844.5412-.1653,1.0668-.3258,1.6476-.2936-.0768-.0256-.171-.0165-.2591-.0079-.0418.004-.0823.0079-.1188.0079-.4256-.0304-.8513.0615-1.2969.1577-.1082.0234-.2176.047-.3285.0692-.1888.0377-.3681.0944-.5475.151-.1796.0567-.3592.1134-.5484.1512-.0871.0291-.1575.0804-.2262.1305-.11.0803-.2156.1574-.3786.134v-.1133c.378-.4539.8315-.907,1.4362-.9448.5749-.0958,1.1229-.0296,1.6895.0388h.0003c.1037.0125.208.0251.3133.0368.4845.0515.9643.1399,1.4354.2645.1039,0,.1621.0913.2185.1798.0463.0726.0914.1434.1596.1604.0906.0302.1814.0363.2721.0423.1361.0091.2722.0181.408.1088c0-.0252-.0042-.0504-.0084-.0755-.0084-.0504-.0168-.1008.0084-.1512.0853-.0854.1827-.0623.2785-.0396.074.0175.1471.0347.2129.0018.2051-.1282.0101-.326-.1837-.5226-.0918-.0931-.1834-.186-.232-.2711.004-.0286.0172-.0552.0377-.0756.0906.0793.1744.162.2575.244.1943.1916.3849.3795.6495.5119.189.0755.6425.189.5669-.0377-.1324-.2915-.3578-.5458-.5848-.802-.0969-.1093-.194-.2189-.2844-.3319v-.1506c-.0553,0-.0701-.0203-.0889-.0459-.0069-.0094-.0143-.0196-.0244-.0297v-.1511c-.0951-.0475-.1154-.1249-.1362-.204-.0123-.0467-.0247-.094-.0528-.1361-.0632-.1053-.0677-.234-.0724-.3666-.0037-.1055-.0075-.2134-.041-.3138-.0682-.2095-.1187-.4244-.1513-.6424-.0444-.2521-.0946-.4925-.1437-.7281h-.0001v-.0001v0v0c-.0761-.365-.1499-.7184-.1962-1.0858-.0582-.5527.2197-1.0161.5059-1.4934.0855-.1425.1718-.2863.25-.434.2645-.4539.5668-.9071,1.0581-1.2094.1132-.4526.4142-.8294.7152-1.2062l.0025-.0031c.3018-.3689.8033-.5936,1.1666-.756.3277-.1455.6629-.2735,1.0042-.3833L20,20v19.9994h18.3682c.5013-.3609,1.0021-.5898,1.5994-.8628.2601-.1189.5384-.2461.843-.3962.0585-.0288.1262-.0615.2006-.0976l.0007-.0003.001-.0005.0004-.0002c.5306-.2568,1.4027-.6789,1.7245-1.0009Zm-6.0006-2.7451c.0265-.1326.1645-.1721.2969-.2101.0564-.0161.1117-.0319.1569-.0545l.0181-.0093.0204-.0109.0001-.0001c.0721-.0386.1624-.087.226-.0553.0428.0642.0977.0799.151.0952.0408.0117.0808.0232.1136.056-.1365.1363-.3002.1497-.4665.1633-.1104.0091-.222.0182-.3275.0635-.0184,0-.0412.0022-.0647.0045-.0732.0071-.1529.0149-.1243-.0423Zm-4.4218-2.7967c-.3394.6803-.7445,1.3258-1.2093,1.9274.0039.0287.0172.0553.0378.0757.9071-1.0205,1.7385-1.8897,2.9096-2.6078.029-.0144.0191-.0012.0044.0185-.0236.0318-.0598.0804.0334.0571.3928-.0906.5682-.4228.7386-.7455.0427-.081.0851-.1613.1306-.2371.1757-.2855.428-.4688.6826-.6539.1836-.1335.3685-.2679.5268-.442.0051.0415-.0088.0832-.0378.1133.0302.0291.0719.043.1134.0378.0659-.0493.1388-.07.2095-.0901.092-.0261.1803-.0512.2444-.1366-.3134-.1255-.6605-.1389-.9827-.0379-.7937.378-1.4738.9827-2.1164,1.663-.3857.4084-.7936.7936-1.2849,1.0581Zm1.8518-.3401c-.0297.0675-.0836.1214-.1511.1512-.0378,0-.0756,0-.0756-.0378.0339-.1587.1487-.2879.3024-.3402.0378-.0001.0378.0378.0378.0756-.0194.0389-.0399.0599-.0599.0803-.0188.0193-.0372.0381-.0536.0709Zm1.8253,5.6799c.0305-.028-.0026-.0489-.0499-.0585.0388-.0295.0705-.0671.093-.1103.0309-.0742-.1689-.0564-.2-.0348-.0305.0243-.0578.0525-.0812.0837-.0494.0532-.1019.1034-.1571.1505-.0415.038-.0818.0771-.1221.1161-.0517.0502-.1034.1003-.1573.1478-.0636.0559.1442.0852.189.0454.0483-.0428.0948-.0874.141-.1322.0196-.0008.0391-.0034.0582-.0079.1086-.0454.2063-.1135.2864-.1998Zm-.6434-.4745l-.0445.0314c-.1267.0894-.2536.1789-.387.2564-.1198.0695-.2437.1266-.368.184-.0435.02-.0871.0401-.1305.0608-.0012-.0033-.0029-.0064-.0049-.0092-.0144-.0202-.0414-.0267-.0633-.0152-.139.0792-.2668.1766-.38.2896-.0176.0167-.0352.0337-.0528.0509-.0239.0235-.0418.0413-.0597.0593l-.0063.0063c-.0006.0006-.0009.0013-.0012.0019l-.0011.0016c-.0269.0267-.0527.0537-.0823.0884-.0136.0203-.0307.0382-.0504.0527-.0235.0156-.0885.0153-.0825-.0283v-.0074l-.0027.0015c-.0214.0112-.0428.0225-.0644.0329-.0196.0092-.0371.0195-.0549.03l-.0041.0024c-.0083-.0032-.0172-.0045-.0261-.0038-.0098.0001-.0193.0033-.0272.0091-.0462.0362-.0919.0748-.1365.1152-.0794.0715-.1528.1495-.2193.2331l-.0108.014-.0113.0146c-.0036.005-.0081.0106-.012.0157l-.0037.0046-.0056.008-.0109.016-.0091.0136c-.01.0104-.0209.0156-.0325.0172l-.0063-.0092c-.0031-.0044-.0062-.0088-.0089-.0134l-.0063-.0107-.0043-.0076c-.0115-.0195-.0222-.0397-.0323-.0605l-.0011-.0023-.0043-.0088-.0046-.0099c.0409-.044.0804-.0895.1186-.1361l.0076-.0091c.0133-.0162.0263-.0323.0393-.0485l.0633-.0809c.0046-.0062.0091-.012.0137-.0178l.0094-.0121c.0415-.0542.0812-.1068.1182-.1596l.0028-.0041.0066-.0098c.0032-.0046.0063-.0093.0097-.014.0181-.0267.0355-.0537.0518-.0812.0147-.0247.0285-.0498.0413-.0754l.0031-.0056.0039-.0078c.0011-.0022.0021-.0045.003-.0068.0011-.0024.0021-.0049.0032-.0073.0133-.0285.0253-.0578.0359-.0881l.0034-.0098.0021-.0062c.0022-.0061.0044-.0123.0063-.0186.0043-.0136.0082-.0276.0119-.0417.0007-.0031.0012-.0062.0021-.0092l.0033-.0132v-.0001c.0035-.0138.007-.0276.0098-.0421.0016-.0088,0-.0178-.0046-.0254.0426-.0731.0928-.1415.1498-.2041-.0027.0017-.0056.0033-.0085.0048v0c-.003.0016-.006.0033-.0088.0051-.0301.0194-.0546.043-.0791.0667-.0194.0189-.0389.0377-.0612.0544-.0412.0307-.117-.0202-.0683-.0567.0302-.0241.0589-.0501.0859-.0779.0638-.0746.1281-.1387.1969-.1979l.0162-.0117c.0368-.0267.0694-.0504.0999-.077.0038-.0033.0073-.0068.0111-.0102l.0054-.0049c.0258-.0337.054-.0655.0845-.095l.0016-.0016c.0007-.0008.0014-.0015.0023-.0021.2211-.2134.5346-.2906.8539-.3691.203-.05.4084-.1006.5938-.1871.1052-.0421.2222-.0256.3379-.0092.0919.0131.183.026.2666.0092.1186-.0116.2377.015.3402.0757-.2619.1426-.5087.2995-.75.453-.0713.0454-.142.0904-.2126.1346l-.0095.0066Zm.6321-2.7111h.3024c-.0213.0427-.0788.0492-.118.0537-.0302.0034-.0495.0056-.0331.0221.1135.1131.3402.0754.4913-.0002.1148-.0646.2471-.0911.3779-.0756.0378,0,.0378-.0756.0378-.1133.0975.031.2.0439.3022.0377.9071-.189,1.7764-.3779,2.6078-.7937-.839-.6453-1.8709-.9325-2.8839-1.2144v0v0c-.1734-.0482-.3462-.0963-.5175-.1461.0378,0,.0756.0126.1134.0252.0756.0252.1512.0504.2268-.0252-.1028-.0822-.2169-.0973-.33-.1123-.0946-.0125-.1886-.0249-.2747-.0766.0085,0,.0189.0019.0304.004.0395.0073.0915.0168.1208-.0418-.2015-.1007-.403-.1343-.6045-.1679v0c-.1008-.0168-.2017-.0337-.3026-.0589.1811-.0326.3103-.194.3024-.3779c0-.0377-.0756-.0377-.1134-.0377-.4535.2267-.7559.6424-.9448,1.1337.1688.0965.3529.0852.5328.0743.1021-.0062.2029-.0124.2987.0013-.0842.0839-.2096.1057-.3304.1267-.0424.0074-.0842.0146-.1235.0245-.116.0289-.2268.1133-.189.1889.0206.0286.0513.0481.0859.0547-.0893.0235-.1709.0698-.237.1343.1082.081.2163.0656.3243.0501.0432-.0061.0863-.0123.1295-.0123c0,.0504.0336.0672.0673.084v0c.0168.0084.0336.0168.0462.0294-.1652.0602-.3007.1821-.378.34-.0454.1135-.1316.186-.2177.2586v0c-.0575.0484-.1149.0967-.1602.1572v.1133c-.1285.1156-.2613.218-.3924.3193v0c-.255.1968-.504.3889-.7036.6634.0377,0,.0377.0378.0377.0755-.0342.0514-.0839.0873-.1316.1217-.0576.0415-.1122.0808-.133.1428c0,.0379,0,.0757.0379.0757.2377-.0792.4442-.2103.6467-.3389.184-.1168.3648-.2316.5627-.3035.1616-.0405.3015-.1132.4372-.1838.1182-.0614.2332-.1212.3564-.1564.0944-.0189.1984-.0472.3023-.0756v0v0c.104-.0283.2079-.0567.3024-.0756c0,.0378,0,.0756.0377.0756Zm1.7431,3.3313c.003-.0022.006-.0046.009-.007l.0067-.0054c.0547-.0386.1055-.088.151-.147-.0031-.001-.0062-.0021-.0093-.0034-.0029-.0011-.0057-.0025-.0085-.0039-.0504.0516-.0994.1071-.1489.1667Zm7.3722-2.48l-.0785.0587c.0434-.002.0785-.013.0785-.0587Z" transform="translate(.06 0)" clip-rule="evenodd" fill="#05100b" fill-rule="evenodd"/><path d="M74.9993,20h-21.5137c.0716.0235.1401.0554.2042.095.1747.0937.4011.2146.5428.2889.2899.1335.5388.3423.7206.6046.0756.1134.189.3402.1134.4914-.0756.1889-.1134.4913-.3023.5669-.2268.1133-.5292.1133-.7937.0755-.1538-.0066-.3062-.032-.4539-.0755.5668.2267,1.0959.4913,1.4739,1.0204.0378.0756.1889.1133.3402.1133.0378,0,.0378.0756.0378.1134-.0757.0757-.1513.1134-.1135.2267h.1135c.1889-.0756.1511-.4538.4157-.3401.1929.1189.2592.3678.1511.5669-.1417.137-.2934.2633-.4538.3779-.0378.0841-.0378.1804,0,.2646.0946.1361.159.2908.1889.4538.1135.2645.1512.5669.2646.8314.1512.5669.3023,1.1338.2645,1.7007c0,.3024-.1512.5669-.0378.8693.0756.3023.2645.5291.4158.7936.151.2267.3023.3779.4157.6047.2266.3779.6424.7558.4539,1.2093-.1134.2645-.5291.2268-.7936.378-.2268.1889-.0378.4912.0755.6802.189.3402-.2268.5669-.4913.6803.0756.1133.2268.0755.2645.1511.0378.189.2268.3024.1135.4913-.1512.2268-.6047.3402-.378.6803.1512.2646.0528.5584-.0377.8315-.1134.3401-.4157.4912-.6803.5669-.2329.0689-.4788.0818-.7177.0377-.069-.0418-.1464-.0677-.2267-.0755-.6426-.0757-1.2851-.2646-1.9275-.2646-.1821.0277-.3599.0785-.5291.1511-.1646.1207-.3177.2561-.4576.4047l-.0044.0047c-.0284.0302-.0556.0608-.0824.0916-.0165.0191-.0326.0386-.0487.058-.0109.0129-.0216.0259-.0322.039-.1097.1377-.2091.2833-.2975.4356-.0056.0096-.0113.0192-.0167.0289-.0099.0175-.0195.0352-.0292.0528-.1189.2207-.2148.453-.2862.6934-.2569.8654-.1446,1.608.0358,1.7882.0502.0502,1.2474.4198,2.0813.7908.3076.1292.6057.28.892.4513h21.1263v-20Z" transform="translate(0-.0006)" fill="#65706d"/><path d="M54.7651,27.296c.1513.0378.3779.0378.3779.1133-.0755.3023-.5292.3779-.7559.6804h-.1131c-.1133.0756-.0755.2645-.1889.2645-.1144-.0251-.2339-.0118-.3401.0378.1512.1511.3401.2647.5668.2267.0651.0226.11.0825.1134.1514.029-.0028.056-.0163.0756-.0379.0379,0,.0757,0,.0757.0379v.1511c-.1135.1511-.3025.0755-.4538.1134.2848.0756.5844.0756.8691,0c.2269-.0756,0-.4539.1513-.6426-.0755,0,0-.1134-.0755-.1134.0755-.0755.1511-.1889.2267-.2267.0898.0024.1749-.0402.2268-.1134c0-.0755-.1511-.1133-.1134-.1891.2267-.1509.4156-.3778.3402-.6046-.0379-.1133-.3402-.1133-.5292-.1889s-.4158,0-.6424.0378c-.1891,0-.3781.1134-.567.1511-.2574.0879-.4996.2154-.7177.3779.2706-.0978.5487-.1736.8315-.2267.2264,0,.4189-.0558.642,0Z" fill="#808080"/><g transform="matrix(2 0 0 2 0 0)"><g><mask mask-type="alpha" x="-150%" y="-150%" height="400%" width="400%"><rect width="114" height="40" rx="0" ry="0" transform="translate(18 20)" fill="#c4c4c4"/></mask></g></g><g transform="matrix(2 0 0 2 0 0)"><g><mask mask-type="alpha" x="-150%" y="-150%" height="400%" width="400%"><rect width="108" height="74" rx="0" ry="0" transform="translate(18 94)" fill="#c4c4c4"/></mask></g></g><path d="" fill="none" stroke="#3f5787" stroke-width="0.5"/><g transform="matrix(.268317 0 0 0.277843 4.766844 0.054612)"><path d="M68.944321,235.095398c-2.626992.000656-4.779679.000656-7.211026.000656c0-17.023834,0-33.771545,0-51.188385c3.749989,0,7.518925-.199203,11.243298.120621c1.126633.096756,2.456436,1.431381,3.134834,2.540512c3.554314,5.811096,6.929238,11.731918,10.894265,18.517822c3.17852-5.420196,6.401496-10.162186,8.830673-15.280884c2.214477-4.66632,5.19239-6.814148,10.373977-5.955871c1.916657.317459,3.930001.051254,6.148941.051254c0,17.124298,0,33.872101,0,50.908173-3.351699,0-6.584693,0-10.292427,0c0-11.257264,0-22.467133,0-33.676987-.392616-.146683-.785225-.293366-1.177841-.440033-2.709358,4.570984-5.391456,9.158417-8.135498,13.708496-2.918747,4.839813-8.435654,4.917358-11.328567.156159-2.835915-4.667389-5.604554-9.375641-9.385598-13.946351c0,6.842759-.000022,13.685502,0,20.528244.000016,3.663453.19249,7.343461-.120071,10.980042-.090744,1.055801-1.627022,1.98735-2.97496,2.976532Z" fill="#0e0f11"/><path d="M183.48465,232.870087c-6.92984-11.146729-13.625046-21.973938-20.320252-32.801163-.306366.100861-.612716.201721-.919082.302582c0,11.366424,0,22.732834,0,34.400467-3.662949,0-6.913743,0-10.415696,0c0-16.761505,0-33.524567,0-50.84961c3.843705,0,7.649689-.288055,11.370957.14766c1.406875.164718,2.994888,1.760742,3.857574,3.114044c5.815323,9.122711,11.452851,18.358688,17.162049,27.549225.859176,1.383102,1.792022,2.720428,3.38327,5.12564c0-12.52452,0-23.876525,0-35.582626c3.683868,0,6.904327,0,10.419571,0c0,16.683289,0,33.427414,0,51.579041-4.806122-.895706-9.554947-1.780716-14.538391-2.98526Z" fill="#060709"/><path d="M153.538696,291.379333c-4.788421,13.5448-16.235382,20.869324-29.47837,19.141205-13.427628-1.752227-22.988236-11.608429-23.96476-24.705719-.981461-13.163482,6.623855-24.687378,19.030235-28.226165c21.684837-6.185334,39.964897,11.830474,34.412895,33.790679m-35.652435-22.167144c-1.077774,1.03183-2.28614,1.958954-3.21122,3.113159-4.526825,5.647888-5.024002,14.358856-1.267944,20.64685c3.40657,5.702881,10.234184,8.878327,16.628258,7.631897c6.860733-1.337371,11.303604-5.411804,13.042099-12.183288c1.906967-7.427612.233108-14.024841-5.894196-18.792328-5.837311-4.54184-12.255081-4.528992-19.296997-.41629Z" fill="#0a0b0d"/><path d="M367.5047,190.177734c0-2.277557,0-4.078765,0-6.127853c6.942871,0,13.434143-.348526,19.871063.093857c7.033722.483413,12.115204,4.806076,13.68576,10.637878c1.891114,7.021988-.317749,12.550186-7.421478,17.938706c5.015686,7.137069,10.04773,14.297378,15.120331,21.515396-8.862,2.406219-11.450714,1.493652-16.065338-5.49997-2.476807-3.753647-4.740814-7.682312-7.558197-11.161697-1.370575-1.692627-3.790741-2.535324-6.817078-4.44516c0,8.304047,0,14.750107,0,21.575455-3.567596,0-6.806061,0-10.815094,0c0-14.586167,0-29.318207.000031-44.526612m10.589386,13.864716c3.215667,3.783096,7.231262,2.217956,9.900665.160629c1.724915-1.329407,2.783813-5.582779,1.986603-7.723434-2.068604-5.554657-7.19632-3.597901-11.906189-3.522858c0,3.605286,0,6.890167.018921,11.085663Z" fill="#090a0c"/><path d="M386.552673,257.908234c3.405365-.001923,6.377777-.001923,10.489441-.001923-6.026916,8.680084-11.558014,16.646118-17.182556,24.746735c5.965607,8.618652,11.813751,17.067627,17.725281,25.608154-8.927918,2.581818-11.466797,1.722595-16.382294-5.325409-2.754303-3.949219-5.507507-7.89917-8.708587-12.490448-3.222748,4.577881-6.483918,8.518677-8.951996,12.90567-2.60022,4.621857-5.899597,6.839264-11.227814,5.878052-1.442566-.260254-2.971924-.039459-5.596375-.039459c6.328858-9.187348,12.192231-17.698975,18.277466-26.532685-5.450226-7.920257-10.887848-15.822113-16.361541-23.776428c7.849884-2.597961,11.576538-1.439728,15.924957,4.785553c2.288849,3.276795,4.587341,6.546967,6.903045,9.804749.178071.250549.527832.379028,1.329224.928833c3.093994-4.427002,6.103394-8.930725,9.348511-13.25766.99472-1.326294,2.635437-2.168122,4.413238-3.233734Z" fill="#0c0d0f"/><path d="M297.744843,265.155182c.00003-2.613709.00003-4.749146.00003-7.004913c3.705353,0,6.986023,0,10.507385,0c0,10.556823-.014465,20.875549.006378,31.194183.009705,4.814728,1.290131,8.919189,6.369111,10.744507c7.625152,2.740387,13.957-1.643036,14.210144-10.211731.26065-8.822083.073272-17.657379.081329-26.486908.001495-1.630982.000183-3.261933.000183-5.184418c3.585816,0,6.826874,0,10.176056,0c0,11.890534.605194,23.728607-.177002,35.474274-.724365,10.877167-9.377411,17.293152-20.905029,17.035217-11.316315-.253204-19.150025-6.770447-19.922303-17.611572-.649566-9.118775-.270202-18.310791-.346282-27.948639Z" fill="#090a0c"/><path d="M243.659515,294.535614c4.270523-11.252991,8.450699-22.126984,12.444489-33.068939.91037-2.494141,1.967926-3.641388,4.900329-3.649933c10.328278-.03009,10.322022-.172943,13.926789,9.362274c4.591064,12.144043,9.196686,24.282532,13.785309,36.42749.631042,1.670166,1.200439,3.363617,1.83139,5.13913-10.290131,1.242126-10.290131,1.242126-15.972321-12.592041-6.5419,0-13.17398,0-20.258209,0-1.001495,2.597259-2.370117,5.272034-3.045929,8.111725-.92781,3.898559-2.846237,5.675751-6.967819,4.970093-1.762329-.301697-3.619369-.050415-6.115448-.050415c1.896729-5.102845,3.605087-9.698914,5.47142-14.649384M264.526581,269.3078c-2.33786,5.692444-4.67569,11.384888-7.183289,17.490662c5.160828,0,9.278839,0,14.041962,0-2.204559-5.874298-4.284454-11.416412-6.858673-17.490662Z" fill="#0a0b0d"/><path d="M162.394073,293.406067c-3.473281-11.882538-1.793655-22.353729,7.517945-30.420471c8.71109-7.546494,18.93988-8.654099,29.426834-4.162751c3.805374,1.629792,7.01477,4.651124,11.143677,7.481446-3.529892,2.743011-6.121521,4.756927-8.672455,6.739197-9.791779-8.437806-18.902298-8.964509-25.704636-1.652924-6.162674,6.624023-6.037658,18.1073.267609,24.582916c6.86792,7.053437,16.158493,6.393799,25.351242-1.994964c2.558395,1.953186,5.159958,3.939331,8.056961,6.151062-6.337524,8.035858-14.4039,11.197387-23.87352,10.481018-11.059433-.836609-18.995712-6.481629-23.513657-17.204529Z" fill="#0b0b0d"/><path d="M466.212067,225.133698c.608215.365966.875885.576705,1.178924.702224c5.493714,2.27562,9.950073,1.53508,11.504761-1.901092c1.600677-3.537949-.268982-6.372818-6.087067-9.192612-2.540283-1.231171-5.153564-2.324722-7.631317-3.669449-7.240875-3.929825-10.21347-9.696289-8.770843-16.748642c1.3096-6.402069,6.737091-11.119049,14.339447-11.853958c7.959228-.769394,14.564148,2.081543,20.083831,8.667481-2.498687,2.255004-4.800079,4.331954-7.311737,6.598678-2.023315-1.62738-3.790435-3.344833-5.831207-4.626556-3.875793-2.434235-8.636749-1.718933-10.110229,1.485611-2.016236,4.384979,1.03775,6.469955,4.240631,8.176773c3.513916,1.872543,7.305511,3.250519,10.722625,5.272415c6.192078,3.663834,8.636872,9.356689,7.350098,16.075729-1.202911,6.281098-5.705475,10.737793-12.45285,12.011002-9.176697,1.731659-16.97461-.717621-23.583527-8.106842c2.535889-2.33725,4.822266-4.444534,7.352387-6.776489c1.662475,1.310531,3.172241,2.500671,5.006073,3.885727Z" fill="#0d0e10"/><path d="M268.769043,224.358337c-2.960815,12.995697-18.920013,15.124619-29.439697,9.198883-2.275559-1.281829-4.186798-3.210372-6.81308-5.270248c2.740173-2.511627,5.134109-4.705902,6.911651-6.33519c4.356904,1.878311,8.061509,4.12059,12.053635,4.911545c1.864945.369507,5.117417-1.543686,6.261063-3.356079c1.733215-2.746811-.055237-5.491684-2.788895-7.048462-2.591095-1.475586-5.34816-2.664108-8.052811-3.935089-10.289077-4.835053-14.149734-12.079041-10.865097-20.43042c3.130692-7.960022,12.716996-11.996674,22.348984-8.708328c4.063599,1.387298,7.611908,4.283951,12.216065,6.974685-3.365357,3.035614-5.762299,5.197678-8.10553,7.31131-2.552124-1.916778-4.581391-4.034042-7.061096-5.153961-3.138321-1.417374-6.814331-1.688599-8.83017,1.926254-2.142868,3.842652.353821,6.300751,3.547195,7.992951c3.0793,1.631744,6.317704,2.960022,9.444687,4.505676c7.059998,3.489792,10.454224,9.013123,9.173096,17.416473Z" fill="#0c0d0f"/><path d="M348.507141,213.341949c-4.236816-.000045-8.020721-.000045-12.093689-.000045c0,4.464737,0,8.385406,0,12.722381c6.062317,0,12.166504,0,18.650788,0c0,3.120789,0,5.835709,0,8.785874-9.756592,0-19.476105,0-29.422486,0c0-16.974671,0-33.701462,0-50.689743c9.92749,0,19.64737,0,29.587769,0c0,2.76979,0,5.363998,0,8.553604-6.409394,0-12.634522,0-18.979859,0c0,4.070373,0,7.545975,0,11.657532c5.271698,0,10.485199,0,16.790467,0-2.158417,3.392883,3.350494,8.486495-4.53299,8.970397Z" fill="#0f1012"/><path d="M66.765549,258.555176c10.386192-4.208527,18.804329-2.188751,26.894722,6.601562-2.36554,2.163452-4.743767,4.338532-7.218514,6.601868-2.162063-1.686615-4.080208-3.5177-6.301201-4.84021-3.712852-2.210846-8.328025-1.4021-9.68386,1.617004-1.930581,4.29892.85408,6.517945,4.158134,8.228943c3.384857,1.752869,6.981529,3.118012,10.281815,5.008423c6.507736,3.727692,9.212417,9.532929,7.928489,16.274475-1.223381,6.423584-5.824211,10.901703-12.889045,12.170105-9.00441,1.616638-16.671627-.847656-23.163109-8.143799c2.589374-2.37915,4.99908-4.593231,6.523678-5.994079c4.69144,1.895202,8.579608,4.026459,12.729305,4.867859c1.672493.339172,5.195686-1.838135,5.577904-3.424195.474716-1.969848-.782311-5.391418-2.447777-6.626159-3.407707-2.526337-7.680893-3.845276-11.431931-5.955963-11.303482-6.360413-11.861191-18.703492-.95861-26.385834Z" fill="#0a0b0d"/><path d="M445.976959,189.756165c-1.265289,1.290344-2.492737,2.777862-3.798157,2.849762-5.104919.281143-10.234497.114837-15.477874.114837c0,4.158844,0,7.736694,0,11.789856c5.349426,0,10.446045,0,15.903686,0c0,3.015152,0,5.568482,0,8.755951-5.143341,0-10.36206,0-15.87146,0c0,4.53186,0,8.449829,0,12.97345c6.244324,0,12.485047,0,18.977356,0c0,3.165802,0,5.735779,0,8.57962-9.885406,0-19.623138,0-29.59674,0c0-16.837829,0-33.448746,0-50.485779c9.729339,0,19.58255,0,29.865203,0c0,1.725388,0,3.347245-.002014,5.422303Z" fill="#0b0b0d"/><path d="M287.036957,193.33548c-4.46225-.002167-8.426697-.002167-12.635773-.002167c0-3.187424,0-5.942673,0-9.064621c13.831757,0,27.697723,0,41.827637,0c0,2.841019,0,5.736588,0,9.093094-5.140412,0-10.056275,0-15.445404,0c0,14.001129,0,27.556106,0,41.417007-3.698181,0-6.920197,0-10.714356,0c0-12.450287.080445-24.86119-.11145-37.267868-.021698-1.403228-1.578094-2.782745-2.920654-4.175445Z" fill="#0c0d0f"/><path d="M228.74501,309.055817c-3.27597.118225-6.091568.118225-9.282211.118225c0-17.01651,0-33.829895,0-50.961762c3.18161,0,6.429688,0,9.986527,0c.130004.774842.417984,1.697113.419677,2.619904.027375,14.943878.032624,29.887787-.011673,44.831573-.003235,1.091919-.42485,2.182587-1.11232,3.39206Z" fill="#0f1012"/><path d="M223.144714,219.996887c0,5.142624,0,9.785736,0,14.754303-3.437194,0-6.665985,0-10.193359,0c0-16.746216,0-33.46936,0-50.51358c3.142288,0,6.380768,0,10.193344,0c0,11.75737,0,23.508575.000015,35.759277Z" fill="#060709"/><path d="M137.233917,219.997757c0,5.146316,0,9.792923,0,14.756622-3.373581,0-6.596054,0-10.091423,0c0-16.733947,0-33.454422,0-50.50296c3.136391,0,6.353371,0,10.091423,0c0,11.751144,0,23.498886,0,35.746338Z" fill="#040406"/><path d="M333.204315,176.963318c-2.274414-2.401596-4.283569-4.545761-6.462951-6.871567c11.401275-1.354797,9.871826-2.258255,18.262512,9.489029-4.245178-.090637-8.382416,1.710693-11.799561-2.617462Z" fill="#1e1e20"/><path d="M118.214653,269.02417c6.713524-3.924683,13.131294-3.937531,18.968605.604309c6.127304,4.767487,7.801163,11.364716,5.894196,18.792328-1.738495,6.771484-6.181366,10.845917-13.042099,12.183288-6.394074,1.24643-13.221688-1.929016-16.628258-7.631897-3.756058-6.287994-3.258881-14.998962,1.267944-20.64685.92508-1.154205,2.133446-2.081329,3.539612-3.301178Z" fill="#fafafa"/><path d="M378.084625,203.587158c-.00946-3.740204-.00946-7.025085-.00946-10.630371c4.709869-.075043,9.837585-2.031799,11.906189,3.522858.79721,2.140655-.261688,6.394027-1.986603,7.723434-2.669403,2.057327-6.684998,3.622467-9.910126-.615921Z" fill="#efefef"/><path d="M264.773743,269.573853c2.327057,5.808197,4.406952,11.350311,6.611511,17.224609-4.763123,0-8.881134,0-14.041962,0c2.507599-6.105774,4.845429-11.798218,7.430451-17.224609Z" fill="#ebebec"/></g></svg>
