<svg id="e7Fy4BtEfhN1" xmlns="http://www.w3.org/2000/svg" xmlns:xlink="http://www.w3.org/1999/xlink" viewBox="0 0 198 151" shape-rendering="geometricPrecision" text-rendering="geometricPrecision" project-id="6dcc098f46e04351a2a7cfdc870f8407" export-id="4f0518791c2547c59f5539ecb6d383a7" cached="false"><rect width="198" height="151" rx="0" ry="0" transform="matrix(2 0 0 2-99-75.5)" fill="none"/><rect width="55" height="20" rx="0" ry="0" transform="translate(20 20)" fill="#fff"/><path d="M42.7378,37.6409c.2147-.2147.4314-.4452.6468-.6765.3849-.4578.806-.8877,1.2558-1.2865.1302-.1181.2676-.2278.4116-.3286.0189-.0189.0284-.0473.0378-.0756s.0189-.0567.0378-.0756c-.0944.0378-.17.0945-.2456.1511s-.1512.1134-.2457.1512c-.0378,0-.0756-.0377-.0378-.0755l.4038-.3029c-.0083.0005-.0171.0005-.0259.0005-.0377,0-.0377-.0377-.0377-.0756-.4873-.0749-.8629.2589-1.2009.5592l-.0086.0077c-.0504.0253-.1008,0-.14-.0196-.0195-.0098-.0363-.0182-.0489-.0182-.2971.0991-.5527.2812-.8102.4647h-.0001c-.2339.1667-.4694.3345-.7391.4424v-.0756c-.094.0313-.1869.0732-.28.1152-.1316.0594-.2637.119-.4003.1493-.2558.0568-.4902.0496-.7193.0425h-.0001-.0001v0h-.0001-.0001v0c-.0755-.0024-.1504-.0047-.2253-.0047-.4621.0562-.9209.1379-1.3741.2447l-.0198.0049-.009.0022-.0107.0028c-.2452.0661-.4816.1613-.7042.2836-.0088.0047-.0174.0098-.0258.015-.0188.0236-.0373.0462-.0547.0654-.0713.0911-.1593.1678-.2592.2261-.1643.0836-.3075.2112-.4497.3378-.0587.0523-.1172.1045-.177.1533-.0178.0124-.0389.0191-.0606.0192-.0623.0598-.1243.1198-.1864.1798v0v0v.0001h-.0001v0v0v.0001c-.1398.1351-.2796.2704-.4222.4026-.036.0167-.0763.0215-.1153.0138.0104-.0155.0178-.0274.025-.0394.0318-.0534.0641-.1065.0968-.1594.0366-.0591.0739-.1176.1121-.1755.0515-.0782.1045-.1555.1609-.2301.0131-.0142.0125-.0362-.0014-.0496-.0142-.0135-.0332-.0206-.0528-.0198.1933-.1808.4061-.3396.6344-.4734-.0252.0023-.0619-.0179-.0428-.0445.0141-.0196.0264-.0399.0386-.0603.0087-.0143.0173-.0286.0266-.0427.0043-.0112.0082-.0225.0121-.0337-.0059-.0065-.0118-.0125-.0177-.0186l-.0109-.0112c-.0622.0369-.1216.0784-.1776.1241-.0274.0247-.053.0572-.0792.0905v0c-.0602.0766-.1236.1572-.2192.1561-.0194-.0003-.0387-.0031-.0573-.0082-.014-.0019-.0275-.0065-.0397-.0135l.0049-.0087.0056-.0106.0055-.0098.018-.0325.0097-.0175.0083-.0151.0145-.0262c.009-.016.0177-.0317.0268-.0479l.0076-.0133.0041-.007.0081-.0139c.0113-.0195.0226-.0388.034-.0582l.0003-.0006.0145-.0246.0233-.0401.0166-.0285.0002-.0002.0001-.0003.0001-.0002h.0001l.0114-.0197.0117-.0198c.0078-.0124.009-.0277.0034-.0412-.0057-.0134-.0175-.0233-.0318-.0264.0703-.0917.1583-.1684.2588-.2255h-.0114c.0996-.0502.1992-.1077.2988-.1653l.0001-.0001.0003-.0001c.0449-.026.0899-.052.1348-.0773.014-.0119.0276-.0239.0413-.0358l.0212-.0182c-.2127.0719-.415.1717-.6016.2967-.0224.0088-.0437.0204-.0633.0345-.0355.0077-.0722-.0058-.0943-.0345-.0061-.008-.0093-.0178-.0091-.0278.0221-.044.0698-.0753.1207-.1086.0365-.0239.0746-.0489.1062-.0804.0376,0,.0754,0,.0754.0378.7505-.5863,1.6754-.7214,2.6035-.8569.5676-.0828,1.1365-.1659,1.6672-.3525l.3401-.2267c.0972-.0389.1844-.1078.277-.1809.0875-.0691.1797-.142.2898-.1971.3054-.2096.5317-.5157.6425-.8691-.004-.0287-.0172-.0553-.0377-.0757-.475.5121-1.0382.9346-1.6629,1.2472-.5723.2998-1.1839.3441-1.7923.3881-.2353.017-.4702.034-.7021.0658.0379-.0755.1135-.0755.189-.0755c0-.0898.0473-.1322.1045-.1834.0151-.0135.0309-.0276.0467-.0434h.1135c.0188,0,.0282-.0189.0376-.0378s.0189-.0378.0378-.0378c.0756,0,.1891-.0378.1513-.0378-.0576-.0768-.1444-.0464-.2407-.0126-.0933.0326-.1954.0684-.2884.0126.0365-.0365.0465-.0819.0557-.1233.0097-.0442.0185-.0839.0576-.1034h.1512c.0079-.0573.0345-.1105.0756-.1512.3367-.2021.6601-.3775.9781-.5499.2174-.1179.4323-.2344.6473-.3572-.044,0-.0822.017-.1192.0335-.0585.0261-.1137.0507-.1831.0044.0378,0,.0378-.0284.0378-.0567c0-.0284,0-.0568.0378-.0568.2379-.0648.451-.1668.6677-.2706.162-.0775.326-.1559.5038-.2206-.0518,0-.0993.0134-.1453.0263-.0881.0248-.1711.0482-.2704-.0263.0251-.0126.0461-.0294.0671-.0462.042-.0336.084-.0672.1596-.0672v-.1134c0-.0378.0379-.0378.0757-.0378-.0287-.004-.0553-.0172-.0757-.0378.0196-.039.0593-.0478.1035-.0576.0414-.0092.0868-.0192.1233-.0557-.0378,0-.1134,0-.1134-.0378.1134-.1512.3023-.1891.4914-.2268-.019-.0378-.0568-.0378-.0899-.0378s-.0614,0-.0614-.0378.0378-.0378.0756-.0378h-.0756c-.0586-.0293-.049-.0813-.0418-.1208v0c.0021-.0115.004-.0219.004-.0303.1512-.1764.2016-.3864.2519-.5963.0252-.105.0504-.21.0882-.3108-.0378,0-.0756,0-.0756-.0378-.3668.4036-.9475.5578-1.4996.7045l-.0498.0132h-.1889c-.2094.0822-.4443.0684-.6426-.0378-.0915-.0458-.1553-.1054-.2249-.1704-.0454-.0425-.0933-.0872-.1529-.132-.2956-.1887-.6128-.3411-.9449-.4538-.9384-.3068-1.9232-.4474-2.91-.4156.2716-.1482.5616-.2078.855-.2681.1557-.032.3124-.0642.4678-.1099.0939-.0276.1871-.0561.2797-.0844.5412-.1653,1.0668-.3258,1.6476-.2936-.0768-.0256-.171-.0165-.2591-.0079-.0418.004-.0823.0079-.1188.0079-.4256-.0304-.8513.0615-1.2969.1577-.1082.0234-.2176.047-.3285.0692-.1888.0377-.3681.0944-.5475.151-.1796.0567-.3592.1134-.5484.1512-.0871.0291-.1575.0804-.2262.1305-.11.0803-.2156.1574-.3786.134v-.1133c.378-.4539.8315-.907,1.4362-.9448.5749-.0958,1.1229-.0296,1.6895.0388h.0003c.1037.0125.208.0251.3133.0368.4845.0515.9643.1399,1.4354.2645.1039,0,.1621.0913.2185.1798.0463.0726.0914.1434.1596.1604.0906.0302.1814.0363.2721.0423.1361.0091.2722.0181.408.1088c0-.0252-.0042-.0504-.0084-.0755-.0084-.0504-.0168-.1008.0084-.1512.0853-.0854.1827-.0623.2785-.0396.074.0175.1471.0347.2129.0018.2051-.1282.0101-.326-.1837-.5226-.0918-.0931-.1834-.186-.232-.2711.004-.0286.0172-.0552.0377-.0756.0906.0793.1744.162.2575.244.1943.1916.3849.3795.6495.5119.189.0755.6425.189.5669-.0377-.1324-.2915-.3578-.5458-.5848-.802-.0969-.1093-.194-.2189-.2844-.3319v-.1506c-.0553,0-.0701-.0203-.0889-.0459-.0069-.0094-.0143-.0196-.0244-.0297v-.1511c-.0951-.0475-.1154-.1249-.1362-.204-.0123-.0467-.0247-.094-.0528-.1361-.0632-.1053-.0677-.234-.0724-.3666-.0037-.1055-.0075-.2134-.041-.3138-.0682-.2095-.1187-.4244-.1513-.6424-.0444-.2521-.0946-.4925-.1437-.7281h-.0001v-.0001v0v0c-.0761-.365-.1499-.7184-.1962-1.0858-.0582-.5527.2197-1.0161.5059-1.4934.0855-.1425.1718-.2863.25-.434.2645-.4539.5668-.9071,1.0581-1.2094.1132-.4526.4142-.8294.7152-1.2062l.0025-.0031c.3018-.3689.8033-.5936,1.1666-.756.3277-.1455.6629-.2735,1.0042-.3833L20,20v19.9994h18.3682c.5013-.3609,1.0021-.5898,1.5994-.8628.2601-.1189.5384-.2461.843-.3962.0585-.0288.1262-.0615.2006-.0976l.0007-.0003.001-.0005.0004-.0002c.5306-.2568,1.4027-.6789,1.7245-1.0009Zm-6.0006-2.7451c.0265-.1326.1645-.1721.2969-.2101.0564-.0161.1117-.0319.1569-.0545l.0181-.0093.0204-.0109.0001-.0001c.0721-.0386.1624-.087.226-.0553.0428.0642.0977.0799.151.0952.0408.0117.0808.0232.1136.056-.1365.1363-.3002.1497-.4665.1633-.1104.0091-.222.0182-.3275.0635-.0184,0-.0412.0022-.0647.0045-.0732.0071-.1529.0149-.1243-.0423Zm-4.4218-2.7967c-.3394.6803-.7445,1.3258-1.2093,1.9274.0039.0287.0172.0553.0378.0757.9071-1.0205,1.7385-1.8897,2.9096-2.6078.029-.0144.0191-.0012.0044.0185-.0236.0318-.0598.0804.0334.0571.3928-.0906.5682-.4228.7386-.7455.0427-.081.0851-.1613.1306-.2371.1757-.2855.428-.4688.6826-.6539.1836-.1335.3685-.2679.5268-.442.0051.0415-.0088.0832-.0378.1133.0302.0291.0719.043.1134.0378.0659-.0493.1388-.07.2095-.0901.092-.0261.1803-.0512.2444-.1366-.3134-.1255-.6605-.1389-.9827-.0379-.7937.378-1.4738.9827-2.1164,1.663-.3857.4084-.7936.7936-1.2849,1.0581Zm1.8518-.3401c-.0297.0675-.0836.1214-.1511.1512-.0378,0-.0756,0-.0756-.0378.0339-.1587.1487-.2879.3024-.3402.0378-.0001.0378.0378.0378.0756-.0194.0389-.0399.0599-.0599.0803-.0188.0193-.0372.0381-.0536.0709Zm1.8253,5.6799c.0305-.028-.0026-.0489-.0499-.0585.0388-.0295.0705-.0671.093-.1103.0309-.0742-.1689-.0564-.2-.0348-.0305.0243-.0578.0525-.0812.0837-.0494.0532-.1019.1034-.1571.1505-.0415.038-.0818.0771-.1221.1161-.0517.0502-.1034.1003-.1573.1478-.0636.0559.1442.0852.189.0454.0483-.0428.0948-.0874.141-.1322.0196-.0008.0391-.0034.0582-.0079.1086-.0454.2063-.1135.2864-.1998Zm-.6434-.4745l-.0445.0314c-.1267.0894-.2536.1789-.387.2564-.1198.0695-.2437.1266-.368.184-.0435.02-.0871.0401-.1305.0608-.0012-.0033-.0029-.0064-.0049-.0092-.0144-.0202-.0414-.0267-.0633-.0152-.139.0792-.2668.1766-.38.2896-.0176.0167-.0352.0337-.0528.0509-.0239.0235-.0418.0413-.0597.0593l-.0063.0063c-.0006.0006-.0009.0013-.0012.0019l-.0011.0016c-.0269.0267-.0527.0537-.0823.0884-.0136.0203-.0307.0382-.0504.0527-.0235.0156-.0885.0153-.0825-.0283v-.0074l-.0027.0015c-.0214.0112-.0428.0225-.0644.0329-.0196.0092-.0371.0195-.0549.03l-.0041.0024c-.0083-.0032-.0172-.0045-.0261-.0038-.0098.0001-.0193.0033-.0272.0091-.0462.0362-.0919.0748-.1365.1152-.0794.0715-.1528.1495-.2193.2331l-.0108.014-.0113.0146c-.0036.005-.0081.0106-.012.0157l-.0037.0046-.0056.008-.0109.016-.0091.0136c-.01.0104-.0209.0156-.0325.0172l-.0063-.0092c-.0031-.0044-.0062-.0088-.0089-.0134l-.0063-.0107-.0043-.0076c-.0115-.0195-.0222-.0397-.0323-.0605l-.0011-.0023-.0043-.0088-.0046-.0099c.0409-.044.0804-.0895.1186-.1361l.0076-.0091c.0133-.0162.0263-.0323.0393-.0485l.0633-.0809c.0046-.0062.0091-.012.0137-.0178l.0094-.0121c.0415-.0542.0812-.1068.1182-.1596l.0028-.0041.0066-.0098c.0032-.0046.0063-.0093.0097-.014.0181-.0267.0355-.0537.0518-.0812.0147-.0247.0285-.0498.0413-.0754l.0031-.0056.0039-.0078c.0011-.0022.0021-.0045.003-.0068.0011-.0024.0021-.0049.0032-.0073.0133-.0285.0253-.0578.0359-.0881l.0034-.0098.0021-.0062c.0022-.0061.0044-.0123.0063-.0186.0043-.0136.0082-.0276.0119-.0417.0007-.0031.0012-.0062.0021-.0092l.0033-.0132v-.0001c.0035-.0138.007-.0276.0098-.0421.0016-.0088,0-.0178-.0046-.0254.0426-.0731.0928-.1415.1498-.2041-.0027.0017-.0056.0033-.0085.0048v0c-.003.0016-.006.0033-.0088.0051-.0301.0194-.0546.043-.0791.0667-.0194.0189-.0389.0377-.0612.0544-.0412.0307-.117-.0202-.0683-.0567.0302-.0241.0589-.0501.0859-.0779.0638-.0746.1281-.1387.1969-.1979l.0162-.0117c.0368-.0267.0694-.0504.0999-.077.0038-.0033.0073-.0068.0111-.0102l.0054-.0049c.0258-.0337.054-.0655.0845-.095l.0016-.0016c.0007-.0008.0014-.0015.0023-.0021.2211-.2134.5346-.2906.8539-.3691.203-.05.4084-.1006.5938-.1871.1052-.0421.2222-.0256.3379-.0092.0919.0131.183.026.2666.0092.1186-.0116.2377.015.3402.0757-.2619.1426-.5087.2995-.75.453-.0713.0454-.142.0904-.2126.1346l-.0095.0066Zm.6321-2.7111h.3024c-.0213.0427-.0788.0492-.118.0537-.0302.0034-.0495.0056-.0331.0221.1135.1131.3402.0754.4913-.0002.1148-.0646.2471-.0911.3779-.0756.0378,0,.0378-.0756.0378-.1133.0975.031.2.0439.3022.0377.9071-.189,1.7764-.3779,2.6078-.7937-.839-.6453-1.8709-.9325-2.8839-1.2144v0v0c-.1734-.0482-.3462-.0963-.5175-.1461.0378,0,.0756.0126.1134.0252.0756.0252.1512.0504.2268-.0252-.1028-.0822-.2169-.0973-.33-.1123-.0946-.0125-.1886-.0249-.2747-.0766.0085,0,.0189.0019.0304.004.0395.0073.0915.0168.1208-.0418-.2015-.1007-.403-.1343-.6045-.1679v0c-.1008-.0168-.2017-.0337-.3026-.0589.1811-.0326.3103-.194.3024-.3779c0-.0377-.0756-.0377-.1134-.0377-.4535.2267-.7559.6424-.9448,1.1337.1688.0965.3529.0852.5328.0743.1021-.0062.2029-.0124.2987.0013-.0842.0839-.2096.1057-.3304.1267-.0424.0074-.0842.0146-.1235.0245-.116.0289-.2268.1133-.189.1889.0206.0286.0513.0481.0859.0547-.0893.0235-.1709.0698-.237.1343.1082.081.2163.0656.3243.0501.0432-.0061.0863-.0123.1295-.0123c0,.0504.0336.0672.0673.084v0c.0168.0084.0336.0168.0462.0294-.1652.0602-.3007.1821-.378.34-.0454.1135-.1316.186-.2177.2586v0c-.0575.0484-.1149.0967-.1602.1572v.1133c-.1285.1156-.2613.218-.3924.3193v0c-.255.1968-.504.3889-.7036.6634.0377,0,.0377.0378.0377.0755-.0342.0514-.0839.0873-.1316.1217-.0576.0415-.1122.0808-.133.1428c0,.0379,0,.0757.0379.0757.2377-.0792.4442-.2103.6467-.3389.184-.1168.3648-.2316.5627-.3035.1616-.0405.3015-.1132.4372-.1838.1182-.0614.2332-.1212.3564-.1564.0944-.0189.1984-.0472.3023-.0756v0v0c.104-.0283.2079-.0567.3024-.0756c0,.0378,0,.0756.0377.0756Zm1.7431,3.3313c.003-.0022.006-.0046.009-.007l.0067-.0054c.0547-.0386.1055-.088.151-.147-.0031-.001-.0062-.0021-.0093-.0034-.0029-.0011-.0057-.0025-.0085-.0039-.0504.0516-.0994.1071-.1489.1667Zm7.3722-2.48l-.0785.0587c.0434-.002.0785-.013.0785-.0587Z" clip-rule="evenodd" fill="#05100b" fill-rule="evenodd"/><path d="M74.9993,20h-21.5137c.0716.0235.1401.0554.2042.095.1747.0937.4011.2146.5428.2889.2899.1335.5388.3423.7206.6046.0756.1134.189.3402.1134.4914-.0756.1889-.1134.4913-.3023.5669-.2268.1133-.5292.1133-.7937.0755-.1538-.0066-.3062-.032-.4539-.0755.5668.2267,1.0959.4913,1.4739,1.0204.0378.0756.1889.1133.3402.1133.0378,0,.0378.0756.0378.1134-.0757.0757-.1513.1134-.1135.2267h.1135c.1889-.0756.1511-.4538.4157-.3401.1929.1189.2592.3678.1511.5669-.1417.137-.2934.2633-.4538.3779-.0378.0841-.0378.1804,0,.2646.0946.1361.159.2908.1889.4538.1135.2645.1512.5669.2646.8314.1512.5669.3023,1.1338.2645,1.7007c0,.3024-.1512.5669-.0378.8693.0756.3023.2645.5291.4158.7936.151.2267.3023.3779.4157.6047.2266.3779.6424.7558.4539,1.2093-.1134.2645-.5291.2268-.7936.378-.2268.1889-.0378.4912.0755.6802.189.3402-.2268.5669-.4913.6803.0756.1133.2268.0755.2645.1511.0378.189.2268.3024.1135.4913-.1512.2268-.6047.3402-.378.6803.1512.2646.0528.5584-.0377.8315-.1134.3401-.4157.4912-.6803.5669-.2329.0689-.4788.0818-.7177.0377-.069-.0418-.1464-.0677-.2267-.0755-.6426-.0757-1.2851-.2646-1.9275-.2646-.1821.0277-.3599.0785-.5291.1511-.1646.1207-.3177.2561-.4576.4047l-.0044.0047c-.0284.0302-.0556.0608-.0824.0916-.0165.0191-.0326.0386-.0487.058-.0109.0129-.0216.0259-.0322.039-.1097.1377-.2091.2833-.2975.4356-.0056.0096-.0113.0192-.0167.0289-.0099.0175-.0195.0352-.0292.0528-.1189.2207-.2148.453-.2862.6934-.2569.8654-.1446,1.608.0358,1.7882.0502.0502,1.2474.4198,2.0813.7908.3076.1292.6057.28.892.4513h21.1263v-20Z" transform="translate(0-.0006)" fill="#65706d"/><path d="M54.7651,27.296c.1513.0378.3779.0378.3779.1133-.0755.3023-.5292.3779-.7559.6804h-.1131c-.1133.0756-.0755.2645-.1889.2645-.1144-.0251-.2339-.0118-.3401.0378.1512.1511.3401.2647.5668.2267.0651.0226.11.0825.1134.1514.029-.0028.056-.0163.0756-.0379.0379,0,.0757,0,.0757.0379v.1511c-.1135.1511-.3025.0755-.4538.1134.2848.0756.5844.0756.8691,0c.2269-.0756,0-.4539.1513-.6426-.0755,0,0-.1134-.0755-.1134.0755-.0755.1511-.1889.2267-.2267.0898.0024.1749-.0402.2268-.1134c0-.0755-.1511-.1133-.1134-.1891.2267-.1509.4156-.3778.3402-.6046-.0379-.1133-.3402-.1133-.5292-.1889s-.4158,0-.6424.0378c-.1891,0-.3781.1134-.567.1511-.2574.0879-.4996.2154-.7177.3779.2706-.0978.5487-.1736.8315-.2267.2264,0,.4189-.0558.642,0Z" fill="#808080"/><g transform="matrix(2 0 0 2 0 0)"><mask mask-type="alpha" x="-150%" y="-150%" height="400%" width="400%"><rect width="57" height="20" rx="0" ry="0" transform="translate(18 20)" fill="#c4c4c4"/></mask></g><path d="M20.06,65h2.84v-10.04l3.12,5.24h2l3.12-5.24v10.04h2.84v-14h-3.54l-3.42,5.88L23.6,51h-3.54v14Zm18.1273,0h2.84v-14h-2.84v14Zm7.0532,0h2.84v-10.12L54.3405,65h3.64v-14h-2.84v10.12L48.8805,51h-3.64v14Zm16.9554,0h2.84v-14h-2.84v14Zm5.7932-1.94c1.24,1.48,2.82,2.34,5.18,2.34c2.58,0,4.62-1.58,4.66-4.22c0-4.8-6.36-4.08-6.36-6.62c0-.84.66-1.48,1.66-1.48c1.06,0,1.98.7,2.8,1.76l2.08-1.88c-1.2-1.42-2.8-2.36-4.9-2.36-2.68,0-4.52,1.84-4.52,4.06c0,4.74,6.36,4.04,6.36,6.62c0,1-.68,1.6-1.8,1.6-1.14,0-2.26-.64-3.1-1.72l-2.06,1.9Zm11.5801-9.48h4.32v11.42h2.84v-11.42h4.32v-2.58h-11.48v2.58ZM96.6636,49.8h2.6l-2.26-2.7h-2.92l2.58,2.7ZM93.8436,65h8.1604v-2.36h-5.3204v-3.6h4.5204v-2.36h-4.5204v-3.32h5.3204v-2.36h-8.1604v14Zm11.7604,0h2.84v-5.66h1.46l3.74,5.66h3.34l-4.38-6.2c1.44-.66,2.26-1.92,2.26-3.62c0-2.6-1.9-4.18-4.98-4.18h-4.28v14Zm4.44-11.64c1.2,0,1.9.72,1.9,1.78c0,1.14-.7,1.84-1.9,1.84h-1.6v-3.62h1.6ZM119.083,65h8.16v-2.36h-5.32v-3.6h4.52v-2.36h-4.52v-3.32h5.32v-2.36h-8.16v14ZM20.06,86h5.5C30,86,33,82.78,33,79s-3-7-7.44-7h-5.5v14ZM25.6,74.58c2.6,0,4.48,1.92,4.48,4.42c0,2.48-1.88,4.42-4.48,4.42h-2.7v-8.84h2.7ZM36.0389,86h8.16v-2.36h-5.32v-3.6h4.52v-2.36h-4.52v-3.32h5.32v-2.36h-8.16v14Zm17.2508,0h8.16v-2.58h-5.32v-11.42h-2.84v14Zm10.2131-8.24l2.32-5.76h-2.88l-1.8,5.76h2.36ZM68.3334,86h2.84v-14h-2.84v14Zm7.0532,0h2.84v-10.12L84.4866,86h3.64v-14h-2.84v10.12L79.0266,72h-3.64v14ZM90.902,74.58h4.32v11.42h2.84v-11.42h4.32v-2.58h-11.48v2.58Zm19.614-3.78l2.6-2.7h-2.92l-2.26,2.7h2.58ZM105.176,86h8.16v-2.36h-5.32v-3.6h4.52v-2.36h-4.52v-3.32h5.32v-2.36h-8.16v14Zm11.761,0h2.84v-5.66h1.46l3.74,5.66h3.34l-4.38-6.2c1.44-.66,2.26-1.92,2.26-3.62c0-2.6-1.9-4.18-4.98-4.18h-4.28v14Zm4.44-11.64c1.2,0,1.9.72,1.9,1.78c0,1.14-.7,1.84-1.9,1.84h-1.6v-3.62h1.6ZM130.415,86h2.84v-14h-2.84v14Zm7.054,0h8.16v-2.36h-5.32v-3.6h4.52v-2.36h-4.52v-3.32h5.32v-2.36h-8.16v14Zm19.938-5.24c0,1.88-1.08,2.98-2.82,2.98-1.78,0-2.84-1.1-2.84-2.98v-8.76h-2.84v8.52c0,3.68,2.16,5.88,5.66,5.88c3.52,0,5.68-2.2,5.68-5.88v-8.52h-2.84v8.76ZM164.075,86h2.84v-5.66h1.46l3.74,5.66h3.34l-4.38-6.2c1.44-.66,2.26-1.92,2.26-3.62c0-2.6-1.9-4.18-4.98-4.18h-4.28v14Zm4.44-11.64c1.2,0,1.9.72,1.9,1.78c0,1.14-.7,1.84-1.9,1.84h-1.6v-3.62h1.6Z" fill="#05100b"/><path d="M71.96,121.7l-1.86,1.7h-.48l1.1-1.94h1.24v.24Zm-1.34,6.58h-.4c-.5.6-1.06,1.08-1.6,1.08-.56,0-.84-.34-.84-1.08c0-.3.04-.62.1-.9l3.26-1.08c.64-1.52-.12-2.18-1.02-2.18-1.54,0-3.3,2.7-3.3,4.86c0,1.02.48,1.58,1.24,1.58.88-.02,1.8-.88,2.56-2.28ZM69.5,125c.44,0,.82.34.62,1.12l-2.02.54c.32-.96.92-1.66,1.4-1.66Zm-6.36.04h1.08l-1.72,4.72c-.16.4.06.8.48.8c1.22,0,2.68-1.04,3.24-2.52h-.3c-.44.62-1.4,1.3-2.12,1.42l1.58-4.42h1.62l.2-.68h-1.58l.6-1.7h-.62l-1.12,1.7-1.34.18v.5Zm-1.5-.9c.22,0,.52.24.38.68l-1.94,4.7c.5-.08,1.02-.56,1.32-1h.32c-.46,1.18-1.5,2.04-2.4,2.04-.22,0-.54-.24-.38-.68l1.8-4.7c-.5.08-1.02.56-1.32,1h-.3c.46-1.2,1.58-2.04,2.52-2.04Zm.56-1.2c.4,0,.74-.32.74-.74c0-.4-.34-.74-.74-.74-.42,0-.74.34-.74.74s.34.74.74.74Zm-8.74,3.9c.44-.96.28-1.4,0-1.4-.24,0-.52.26-.8.74h-.3c.46-1.02,1.06-2.04,1.72-2.04.56,0,.76.56.76,1.18v.88c.091-.106.1795-.21.266-.311h.0001c.8449-.992,1.49-1.749,2.2339-1.749.58,0,.88.36.88.9c0,.32-.1.72-.32,1.14l-1.66,3.34c.5-.08,1.02-.56,1.32-1h.3c-.46,1.2-1.58,2.04-2.52,2.04-.42,0-.66-.44-.48-.8l1.92-3.7c.22-.42.26-.7-.08-.7-.46,0-1.54.76-2.12,1.46l-1.26,3.32c-.14.34-.28.42-.6.42-.52,0-.78-.34-.54-.88l1.28-2.84Zm-1.3-1.28c.22-.76.1-1.44-.48-1.44-.7233,0-.9498.478-1.6508,1.956l-.0492.104v-.88c0-.62-.2-1.18-.76-1.18-.66,0-1.26,1.02-1.72,2.04h.3c.32-.46.62-.74.86-.74.28,0,.44.44,0,1.4l-1.28,2.84c-.24.54.02.88.54.88.32,0,.46-.08.6-.42l1.26-3.32c.36-.44.68-.82,1.08-1.24h1.3Zm-6.32.56c.2-.78-.18-1.12-.62-1.12-.48,0-1.08.7-1.4,1.66l2.02-.54Zm.5,2.16h-.4c-.5.6-1.06,1.08-1.6,1.08-.56,0-.84-.34-.84-1.08c0-.3.04-.62.1-.9l3.26-1.08c.64-1.52-.12-2.18-1.02-2.18-1.54,0-3.3,2.7-3.3,4.86c0,1.02.48,1.58,1.24,1.58.88-.02,1.8-.88,2.56-2.28Zm-6.4-3.24h-1.08v-.5l1.34-.18l1.12-1.7h.62l-.6,1.7h1.58l-.2.68h-1.62l-1.58,4.42c.72-.12,1.68-.8,2.12-1.42h.3c-.56,1.48-2.02,2.52-3.24,2.52-.42,0-.64-.4-.48-.8l1.72-4.72Zm-6.8,3.66c0-1.46,1.62-3.42,2.52-3.42.2,0,.4.02.56.08l-.94,2.52c-.54.66-1.38,1.46-1.78,1.46-.22,0-.36-.2-.36-.64Zm4.46-4.88l.5.04-1.74,4c-.42.96-.24,1.4,0,1.4s.54-.28.86-.74h.3c-.46,1.02-1.06,2.04-1.72,2.04-.56,0-.9-.6-.8-1.68l.04-.38-.1089.152c-.7164,1.002-1.3647,1.908-2.0311,1.908-.58,0-.88-.36-.88-.9c0-2.32,2.54-5.28,4.92-5.28h.1l.56-.56Zm-4.58,1.74c.22-.76.1-1.44-.48-1.44-.7233,0-.9498.478-1.6508,1.956l-.0492.104v-.88c0-.62-.2-1.18-.76-1.18-.66,0-1.26,1.02-1.72,2.04h.3c.32-.46.62-.74.84-.74.28,0,.44.44,0,1.4l-1.28,2.86c-.24.54.02.88.54.88.32,0,.46-.08.6-.42l1.26-3.32c.36-.44.68-.82,1.08-1.24h1.32v-.02Zm-8.24,4.4l-.12.36h-4.66l.12-.38c1.44-.26,1.68-.38,2.28-2l1.3-3.48c.58-1.62.46-1.74-.8-2l.12-.36h6.06l-.36,1.94h-.44c0-1.16-.12-1.46-1.22-1.46h-.28c-1.08,0-1.22.16-1.52,1l-.86,2.34h1.26c.84,0,1.16-.52,1.54-1.2h.44l-1.04,2.84h-.44c.1-.86.1-1.2-.68-1.2h-1.26l-.58,1.6c-.627,1.665-.4478,1.699,1.0451,1.982.0311.006.0627.012.0949.018Z" clip-rule="evenodd" fill="#05100b" fill-rule="evenodd"/><path d="M28.74,106.4l-1.86,1.34v.02h-.48l1.1-1.6h1.24v.24Zm13,9.38l2.98-7.92-.1-.12-2.06.24v.24l.4.3c.3415.266.2511.513-.0323,1.289l-.0477.131-2.28,6.08c-.18.36.06.8.48.8.94,0,1.94-.86,2.4-2.04h-.3c-.32.44-.96.92-1.44,1Zm13.66-6.1l1.86-1.7v-.24h-1.24l-1.1,1.94h.48Zm.12,4.86h.4c-.74,1.42-1.66,2.28-2.54,2.28-.76,0-1.24-.56-1.24-1.58c0-2.16,1.76-4.86,3.3-4.86.88,0,1.66.66,1.02,2.18l-3.28,1.08c-.06.28-.1.6-.1.9c0,.74.28,1.08.84,1.08.54,0,1.1-.48,1.6-1.08Zm-.1-2.16c.2-.76-.18-1.1-.62-1.1-.46,0-1.06.7-1.4,1.64l2.02-.54Zm-5.88-1.06h-1.08v-.5l1.34-.18l1.12-1.7h.62l-.6,1.7h1.58l-.2.68h-1.62l-1.58,4.42c.72-.12,1.68-.8,2.12-1.42h.3c-.56,1.48-2.02,2.52-3.24,2.52-.42,0-.64-.4-.48-.8l1.72-4.72Zm-2.2-.24c.12-.44-.16-.68-.4-.68-.94,0-2.06.86-2.52,2.04h.3c.3-.44.82-.92,1.32-1l-1.8,4.7c-.16.44.16.68.38.68.9,0,1.94-.86,2.4-2.04h-.3c-.3.44-.82.92-1.32,1l1.94-4.7Zm.92-2.6c0,.4-.34.74-.74.74s-.74-.34-.74-.74.32-.74.74-.74c.4,0,.74.34.74.74Zm-10.1,3.08c-.9,0-2.52,1.96-2.52,3.42c0,.44.14.64.38.64.38,0,1.22-.8,1.76-1.46l.94-2.52c-.18-.06-.36-.08-.56-.08Zm2.44-1.42l-.5-.04-.56.56h-.1c-2.38,0-4.92,2.96-4.92,5.28c0,.54.3.9.88.9.6664,0,1.3147-.906,2.0311-1.908l.1089-.152-.04.38c-.1,1.08.24,1.68.8,1.68.66,0,1.26-1.02,1.72-2.04h-.3c-.32.46-.62.74-.86.74s-.42-.44,0-1.4l1.74-4Zm-10.08,6.48c-.86.34-1.46.74-1.46,1.36c0,.58.54.82,1.66.82c1.5,0,2.32-.44,2.32-1.02c0-.26-.34-.38-1.24-.68-.58-.18-1-.34-1.28-.48Zm1-2.46c-.4,0-.54-.34-.54-.7c0-1.16.56-2.6,1.46-2.6.4,0,.54.34.54.7-.02,1.18-.58,2.6-1.46,2.6Zm.76,1.88c1.1.34,1.78.6,1.78,1.36c0,.98-1.8,2.14-3.98,2.12-1.26,0-2.34-.34-2.34-1.16c0-.78.72-1.42,2.48-1.94-.24-.16-.34-.36-.34-.64c0-.48.44-.86,1.2-1.22-.74-.1-1.22-.66-1.22-1.48c0-1.26,1.04-2.7,2.68-2.7.34,0,.64.08.88.24h1.8l-.2.68h-1.06c.06.18.1.38.1.6c0,1.22-.98,2.62-2.54,2.7-.4.22-.6.52-.6.76c0,.282.3272.378,1.0502.589h.0003c.0961.028.1992.058.3095.091Zm-6.34-3.42c.78,0,.8.34.68,1.2h.44l1.04-2.84h-.44c-.38.68-.7,1.2-1.54,1.2h-1.72l.84-2.34c.3-.84.44-1,1.52-1h.76c1.1,0,1.22.3,1.22,1.46h.44l.36-1.94h-6.52l-.12.36c1.26.26,1.38.38.8,2l-1.3,3.5c-.6,1.62-.84,1.74-2.3,2l-.1.38h7.24l1.3-2.06h-.5c-.84.82-1.68,1.58-3.32,1.58-1.8039,0-1.7717-.088-1.2305-1.575.0348-.096.0718-.197.1105-.305l.6-1.6h1.74v-.02Z" clip-rule="evenodd" fill="#05100b" fill-rule="evenodd"/><path d="M31.92,95.48c.4,0,.74-.34.74-.74s-.34-.74-.74-.74c-.42,0-.74.34-.74.74c0,.42.32.74.74.74Zm1.74,7.6c1.56.02,4.18-2.86,4.18-5.08c0-.96-.24-1.32-.92-1.32-.84,0-1.62.9-2.4,1.98l1.68-4.5-.1-.14-2.06.24v.24l.4.3c.3483.2709.2473.5418-.0494,1.3378L34.36,96.22l-1.82,4.76c-.16.4-.34.88-.34,1c0,.56.76,1.1,1.46,1.1Zm21.52-7.12l1.86-1.7v-.24h-1.24l-1.1,1.94h.48Zm.12,4.86h.4c-.76,1.42-1.68,2.28-2.56,2.26-.76,0-1.24-.54-1.24-1.56c0-2.16,1.76-4.86,3.3-4.86.88,0,1.66.66,1.02,2.18l-3.26,1.08c-.06.28-.1.6-.1.9c0,.74.28,1.08.84,1.08.54,0,1.1-.48,1.6-1.08Zm-.1-2.16c.2-.76-.18-1.1-.62-1.1-.48,0-1.08.7-1.4,1.64l2.02-.54ZM49.3,97.6h-1.08v-.5l1.34-.18l1.12-1.7h.62l-.6,1.7h1.58l-.2.68h-1.62l-1.58,4.42c.72-.12,1.68-.8,2.12-1.42h.3c-.56,1.48-2.02,2.52-3.24,2.52-.42,0-.64-.4-.48-.8L49.3,97.6Zm-1.64.52c.22-.76.1-1.44-.48-1.44-.7233,0-.9498.4777-1.6508,1.9562L45.48,98.74v-.88c0-.62-.2-1.18-.76-1.18-.66,0-1.26,1.02-1.72,2.04h.3c.32-.46.62-.74.84-.74.28,0,.44.44,0,1.4l-1.28,2.84c-.24.54.02.88.54.88.32,0,.46-.08.6-.42l1.26-3.32c.36-.44.68-.82,1.08-1.24h1.32Zm-6.34.54c.2-.76-.18-1.1-.62-1.1-.48,0-1.06.7-1.4,1.64l2.02-.54Zm.5,2.16h-.4c-.5.6-1.06,1.08-1.6,1.08-.56,0-.84-.34-.84-1.08c0-.3.04-.62.1-.9l3.26-1.08c.64-1.52-.12-2.18-1.02-2.18-1.54,0-3.3,2.7-3.3,4.86c0,1.02.48,1.56,1.24,1.56.88.02,1.8-.84,2.56-2.26Zm-8.4.76c0,.26.46.56.78.56c1.3,0,2.52-2.34,2.5-3.64c0-.44-.22-.62-.52-.62-.48,0-1.36.72-1.92,1.4l-.52,1.4c-.18.46-.32.82-.32.9Zm-2.1-4.9c.24,0,.52.24.4.68l-1.92,4.7c.5-.08,1.02-.56,1.32-1h.3c-.46,1.18-1.5,2.04-2.4,2.04-.24,0-.56-.24-.4-.68l1.8-4.7c-.5.08-1.02.56-1.32,1h-.3c.46-1.18,1.58-2.04,2.52-2.04Zm-8.3-2.08h4.3l-.12.38c-1.46.26-1.7.38-2.3,2l-1.28,3.52c-.62,1.68-.46,1.88.64,1.88c1.359,0,2.2502-.988,3.0283-1.85.0578-.064.115-.128.1717-.19h.5l-1.42,2.52h-6.54l.12-.36c1.44-.26,1.68-.38,2.28-2l1.3-3.54c.58-1.62.46-1.74-.8-2l.12-.36Z" clip-rule="evenodd" fill="#05100b" fill-rule="evenodd"/><g transform="matrix(2 0 0 2 0 0)"><mask mask-type="alpha" x="-150%" y="-150%" height="400%" width="400%"><rect width="54" height="37" rx="0" ry="0" transform="translate(18 94)" fill="#c4c4c4"/></mask></g></svg>
