<svg id="ePv1EYLabsm1" xmlns="http://www.w3.org/2000/svg" xmlns:xlink="http://www.w3.org/1999/xlink" viewBox="0 0 1395.0685 442.43381" shape-rendering="geometricPrecision" text-rendering="geometricPrecision" project-id="7e71d961b4e14de18141a1fb0057f98e" export-id="e24772090405471e96851d9e85cedc40" cached="false"><g transform="matrix(13.6411 0 0 13.6411 420.801 555.184)"><path d="M53.97488,-9.775359c-8.098054,0-14.659135-6.550029-14.659135-14.630048c0-8.076459,6.561081-14.622928,14.659135-14.622928c8.094486,0,14.659135,6.546469,14.659135,14.622928c0,8.080343-6.564649,14.630048-14.659135,14.630048" fill="#fff"/><path d="M56.249366,-40.557031c-.441729-.03689-.669081-.05113-1.105621-.05113.781621.02298,1.568756.109054,2.355567.265354c8.344541,1.621246,13.685514,10.022602,11.932216,18.766652-1.754918,8.74049-9.940864,14.513874-18.285405,12.894569-.371351-.07378-.737513-.159859-1.096865-.259852c1.418919.437186,2.943568.676005,4.550919.676005c1.608973,0,2.85373-.217785,4.04173-.484756c5.153189-1.16788,9.325297-4.779278,11.407784-9.302587.883783-1.977532,1.371567-4.162817,1.371567-6.45489-.000324-8.951155-7.026162-15.359122-15.171892-16.049366" fill="#65706d"/><path d="M37.151204,-25.718584c-.614594,8.794856,6.202054,16.451603,15.497189,17.247017-.49654-.043686-.99827-.113908-1.503567-.210665-8.344541-1.619304-13.685514-10.024543-11.932216-18.76827c1.742918-8.682565,9.83027-14.434915,18.11481-12.925959-.695675-.133647-1.401405-.228463-2.123351-.279592-9.456649-.646233-17.436973,6.039061-18.052865,14.937469" fill="#acb7b5"/><path d="M57.499312,-40.343453c-8.34454-1.623188-16.532108,4.150519-18.287351,12.892628-1.753297,8.745668,3.587676,17.148965,11.932216,18.76827c8.346162,1.619628,16.53373-4.152461,18.287351-12.89457c1.753298-8.742108-3.586054-17.145729-11.932216-18.766328M53.97488,-9.775359c-8.098054,0-14.659135-6.550029-14.659135-14.630048c0-8.076459,6.561081-14.622928,14.659135-14.622928c8.094486,0,14.659135,6.546469,14.659135,14.622928c0,8.080343-6.564649,14.630048-14.659135,14.630048" fill="#05100b"/><path d="M62.115096,-31.375147h-5.017297c-.918811,0-1.045946.372466-1.045946.934563c0,0,.0019,8.137943.0019,8.148299-.06324,1.865565-.756973,2.462934-2.089622,2.462934-1.364108,0-2.061405-.629082-2.089621-2.613733v-7.997177c0-.562096-.132-.934562-1.04919-.934562h-5.018873v9.690909c0,2.144511.41546,3.05092,1.304433,3.971244c1.375135,1.431616,3.781297,2.034163,6.853297,2.034163s5.480108-.602547,6.858487-2.034163c.885405-.920324,1.304432-1.826733,1.304432-3.971244l-.012-9.691233Z" fill="#65706d"/></g><g><path d="M106.67249,263.95404c0-17.14379-6.56121-31.11281-28.572989-42.96531L51.008075,206.38476c-11.429195-6.1379-14.180668-8.88937-14.180668-14.81562c0-7.61947,4.444687-11.21755,16.508838-11.21755c14.39232,0,38.943924,1.90487,44.870174,2.32817.211652,0,.423303,0,.423303,0c2.751478,0,3.598078-1.69321,3.598078-3.59808v-21.37683c0-2.32817-1.48156-3.38642-3.174774-3.80973-8.042767-2.11652-29.419595-4.65634-44.870174-4.65634C13.12241,149.23878,0,167.22918,0,190.51088c0,15.45058,5.291294,28.78464,24.974908,40.42548l29.207944,17.35545c11.005892,6.5612,13.969016,9.94763,13.969016,16.08553c0,10.15929-4.233035,14.81563-18.837007,14.81563-8.254418,0-31.536113-1.69322-40.213835-2.53983-.211652,0-.423303,0-.634955,0-2.116518,0-3.809732,1.05826-3.809732,4.02139v20.74187c0,2.32817,2.116518,3.59808,4.233035,4.23304c10.79424,2.75147,23.281694,4.65634,40.002184,4.65634c42.965308,0,57.780932-23.91665,57.780932-46.35174Z" fill="#05100b" stroke-width="5.29129"/><path d="M234.11331,190.93418c0-2.11652-1.90487-3.80973-4.02139-3.80973h-28.14968c-2.32817,0-4.02138,1.90486-4.44469,4.02138l-19.68361,83.60245c0,0-.21165,0-.84661,0-.21165,0-.4233,0-.84661,0h-.21165c-1.26991,0-1.90486-1.05826-2.53982-4.02138l-19.04866-79.58107c-.4233-2.11652-1.90486-4.02138-4.02138-4.02138h-28.14969c-2.96312,0-4.23303,1.26991-4.23303,3.38643c0,.4233,0,.8466.21165,1.48156l27.93803,95.24329c5.2913,18.41371,11.8525,19.68362,19.68362,19.68362h3.17477l-1.90486,6.5612c-2.53982,8.46607-6.34955,11.00589-13.96902,11.00589-6.98451,0-19.47196-1.26991-26.45647-1.69321-.21165,0-.21165,0-.4233,0-2.32817,0-4.23304,1.69321-4.23304,4.02138v17.1438c0,2.32817,2.11652,2.96312,4.44469,3.80973c5.29129,1.69321,17.77875,3.38643,25.60986,3.38643c31.11281,0,39.79053-11.64085,46.35174-34.49924l35.5575-124.66289c0-.4233.21165-.63496.21165-1.05826Z" fill="#05100b" stroke-width="5.29129"/><path d="M336.29812,274.74828c0-11.4292-3.80973-22.43509-21.37683-32.59437l-26.24482-15.02728c-4.23303-2.53982-6.5612-4.23303-6.5612-7.40781c0-4.86799,2.96312-6.1379,11.21754-6.1379c10.79424,0,28.99629,1.90487,35.13419,2.75147.21165,0,.42331,0,.63496,0c2.11651,0,3.59808-1.48156,3.59808-4.02138v-17.14379c0-2.53983-1.48157-4.23304-4.02139-4.86799-10.79424-2.75148-20.95352-4.868-37.67401-4.868-29.20794,0-43.38861,11.4292-43.38861,32.80603c0,13.75736,6.98451,24.5516,18.83701,31.32446l27.51472,15.87388c5.92625,3.38643,7.83112,5.7146,7.83112,8.88938c0,5.50294-2.32817,8.25441-12.48745,8.25441-6.77286,0-24.55161-1.48156-35.9808-2.96312-.21166,0-.63496,0-.84661,0-2.53982,0-4.02138,1.90487-4.02138,4.02138v17.1438c0,2.53982,1.48156,4.23303,4.02138,4.86799c10.79424,2.96312,26.87977,4.65634,38.52062,4.65634c30.90116,0,45.29348-15.66224,45.29348-35.5575Z" fill="#05100b" stroke-width="5.29129"/><path d="M426.68335,304.37953v-16.50884c0-2.32817-1.69322-3.59808-4.44469-3.59808h-10.37094c-6.34955,0-6.9845-1.48156-6.9845-9.94763v-61.59067h17.35544c2.32817,0,4.23304-1.90486,4.23304-4.23303v-17.1438c0-2.32817-1.90487-4.23303-4.23304-4.23303h-17.35544v-22.43509c0-2.11652-1.69322-3.59808-3.80974-3.59808-.21165,0-.4233,0-.63495,0l-25.82152,4.44469c-2.32817.4233-4.23303,1.90486-4.23303,4.23303v17.35545h-16.93214c-2.32817,0-4.44469,2.11652-4.44469,4.44469v13.96901c0,2.32817,2.11652,4.02139,4.44469,4.44469l16.93214,2.75147v61.37901c0,30.05455,12.2758,36.19246,35.5575,36.19246c6.1379,0,10.37093-.63496,16.72048-1.69322c2.53983-.4233,4.02139-2.11652,4.02139-4.23303Z" fill="#05100b" stroke-width="5.29129"/><path d="M548.77996,253.37145v-12.2758c0-31.95942-17.5671-55.66442-52.27799-55.66442-33.65263,0-53.54789,21.58848-53.54789,55.66442v14.81562c0,40.84879,27.51473,54.39451,53.12459,54.39451c18.4137,0,29.8429-1.69322,43.38861-5.07965c3.59808-.8466,4.44469-2.32817,4.44469-5.71459v-16.08554c0-2.32817-1.69321-3.38643-4.02138-3.38643-.21166,0-.42331,0-.63496,0-8.46607.84661-27.30308,1.90487-40.63714,1.90487-16.72049,0-21.80013-11.00589-21.80013-23.07004v-.42331h67.51691c2.75148,0,4.44469-1.90486,4.44469-5.07964Zm-33.44098-16.08553h-38.52062v-.84661c0-15.45058,7.83112-23.49335,19.47196-23.49335c11.8525,0,19.04866,7.83112,19.04866,23.49335v.84661Zm4.23304-63.70718c0-.63496-.21166-1.26991-.84661-2.11652l-19.47196-24.76326c-1.90487-2.32817-2.75148-3.17477-5.7146-3.17477h-27.93803c-1.48157,0-2.32817.63495-2.32817,1.48156c0,.4233.21165,1.05826.8466,1.69321l25.82152,25.82152c1.69321,1.69321,2.32817,2.53982,5.07964,2.53982h22.64674c1.26991,0,1.90487-.63496,1.90487-1.48156Z" fill="#05100b" stroke-width="5.29129"/><path d="M730.7674,303.95622v-72.17325c0-27.72638-8.46607-46.35174-36.40411-46.35174-13.75736,0-22.22343,3.38643-34.49923,10.37094-5.92625-7.19616-13.75737-10.37094-24.97491-10.37094-12.2758,0-22.43509,4.65634-31.32446,10.58259v-4.65634c0-2.32817-1.90487-4.23303-4.23304-4.23303h-24.1283c-2.32817,0-4.23303,1.90486-4.23303,4.23303v112.59874c0,2.32817,2.11651,4.44469,4.44468,4.44469h25.60987c2.32817,0,4.23303-2.11652,4.23303-4.44469v-84.2374c6.56121-3.38643,12.06415-5.50295,16.08554-5.50295c9.73598,0,12.2758,4.02139,12.2758,17.5671v72.17325c0,2.32817,2.11652,4.44469,4.44468,4.44469h25.60987c2.32817,0,4.23303-2.11652,4.23303-4.44469v-72.17325c0-4.65634-.21165-9.52433-.63495-13.75736c6.34955-2.96313,12.6991-3.80974,16.29718-3.80974c9.73599,0,12.91076,4.02139,12.91076,17.5671v72.17325c0,2.32817,1.90487,4.44469,4.23304,4.44469h25.60986c2.32817,0,4.44469-2.11652,4.44469-4.44469Z" fill="#05100b" stroke-width="5.29129"/><path d="M858.81673,253.37145v-12.2758c0-31.95942-17.56709-55.66442-52.27798-55.66442-33.65263,0-53.5479,21.58848-53.5479,55.66442v14.81562c0,40.84879,27.51473,54.39451,53.12459,54.39451c18.41371,0,29.8429-1.69322,43.38862-5.07965c3.59808-.8466,4.44468-2.32817,4.44468-5.71459v-16.08554c0-2.32817-1.69321-3.38643-4.02138-3.38643-.21165,0-.4233,0-.63496,0-8.46607.84661-27.30307,1.90487-40.63713,1.90487-16.72049,0-21.80014-11.00589-21.80014-23.07004v-.42331h67.51692c2.75147,0,4.44468-1.90486,4.44468-5.07964Zm-33.44098-16.08553h-38.52062v-.84661c0-15.45058,7.83112-23.49335,19.47197-23.49335c11.85249,0,19.04865,7.83112,19.04865,23.49335v.84661Z" fill="#05100b" stroke-width="5.29129"/></g></svg>
