<svg id="eH9qMc648ms1" xmlns="http://www.w3.org/2000/svg" xmlns:xlink="http://www.w3.org/1999/xlink" viewBox="0 0 900 500" shape-rendering="geometricPrecision" text-rendering="geometricPrecision" project-id="dd0a5d2898374ba89797ea4104c89da6" export-id="dca93ec572954f1b9a335e9f8e752483" cached="false" style="background-color:transparent"><path d="M847,501c-282.333313,0-564.166656,0-846,0C1,334.333344,1,167.666672,1,1C301,1,601,1,901,1c0,166.666672,0,333.333344,0,500-17.833313,0-35.666687,0-54,0M812.976318,218.995773c-1.385437.874314-3.293335,1.429871-4.057983,2.682984-2.24408,3.677826-4.018677,7.640762-6.004517,11.477829-4.38208,8.466964-8.780883,16.925247-13.456665,25.933838-6.357605-12.693955-12.329773-24.74878-18.47644-36.713974-.708862-1.379929-2.299011-3.071991-3.635681-3.220139-3.893677-.431595-7.866089-.153198-11.859192-.153198c0,21.313293,0,42.014496,0,62.728943c4.976806,0,9.574829,0,14.804809,0c0-8.564057,0-16.877014,0-25.189972c4.801819,6.802032,8.778565,13.684143,12.35608,20.767883c1.65863,3.28418,3.4057,4.839752,7.460266,4.910889c4.299682.075439,5.288452-2.496155,6.774597-5.256439c3.708618-6.887787,7.469543-13.747498,11.209411-20.61847.395752.122834.791565.245667,1.187317.3685c0,8.379425,0,16.75885,0,24.992828c5.135987,0,9.734619,0,14.377442,0c0-21.006103,0-41.712616,0-62.712143-3.490967,0-6.635437,0-10.679444.000641M195.339554,271.465607c0,3.423156,0,6.846313,0,10.174896c6.04245,0,11.290359,0,17.047073,0c0-10.835449,0-21.313599,0-32.828354c8.474152,10.676102,16.211243,20.460983,24.009369,30.196976.89447,1.116729,2.073593,2.711822,3.217178,2.797485c4.390412.328949,8.82013.133209,13.098404.133209c0-21.346649,0-41.941909,0-62.583648-5.683746,0-11.067825,0-17.011352,0c0,10.681472,0,21.009964,0,32.476684-8.476685-10.604004-16.120194-20.251144-23.895188-29.791107-1.050796-1.289337-2.688201-2.746933-4.181945-2.903213-3.900406-.40802-7.871796-.137421-12.283097-.137421c0,17.552277,0,34.512741-.000442,52.464493m482.250473-20.951538c-.319763-2.47519-.425171-5.000794-.993469-7.417527-4.170166-17.733566-22.379029-28.518066-40.513306-24.076904-17.489868,4.283325-28.090942,21.968323-23.790772,39.68837c4.20868,17.342926,22.759827,28.328705,40.243958,23.832184c14.36438-3.694184,22.554382-13.909302,25.053589-32.026123m65.861877,17.347747c7.448181-13.67955,6.163391-27.802688-3.541565-38.930038-8.794616-10.083695-23.600464-13.636475-36.511291-8.761276-12.668274,4.783615-21.415589,17.502136-21.289612,30.954849.127075,13.566605,9.668518,26.618118,22.407654,30.650864c14.880615,4.710662,29.282104-.249298,38.934814-13.914399M550.853027,243.5c0,12.730804,0,25.461578,0,38.245361c5.998474,0,11.250061,0,17.18982,0c0-5.433197,0-10.628875,0-15.5083c5.321594-1.572663,8.624878-.241272,10.958679,4.177215c1.69635,3.211487,3.93634,6.170776,6.203674,9.028565.910828,1.14804,2.509461,2.376464,3.852661,2.445495c5.393372.277161,10.809327.114594,17.105225.114594-4.732056-6.878907-8.925049-12.974213-13.240601-19.24765.836853-.612366,1.47052-1.09726,2.125183-1.552002c7.918946-5.501374,10.921753-13.224808,9.491089-22.514801-1.519958-9.869797-7.359924-16.988739-17.178772-18.307312-11.898193-1.597825-24.047058-1.328904-36.507141-1.886521c0,8.758026,0,16.381699.000183,25.005356m-393.842224-7.844788c-.329605-3.28656,2.033234-2.753189,3.961518-2.756713c8.59056-.015763,17.181167-.006852,25.726013-.006852c0-5.013687,0-9.267822,0-13.530075-15.688019,0-31.065308,0-46.456909,0c0,20.958817,0,41.548798,0,62.338227c15.958938,0,31.669052,0,47.503997,0c0-4.558747,0-8.807709,0-13.590912-5.198318,0-10.149765,0-15.101211,0-5.095276,0-10.190552,0-15.300385,0c0-4.083679,0-7.481873,0-11.38916c7.907532,0,15.488144,0,23.297409,0c0-4.59842,0-8.678544,0-13.472687-7.929046,0-15.627884,0-23.634353,0c0-2.683914,0-4.662476.003921-7.591828M78.993454,264.498444c0,5.431701,0,10.863403,0,16.274353c6.048706,0,11.433495,0,17.381805,0c0-5.428681,0-10.493134,0-15.939057c5.22358,0,9.898423.306336,14.520035-.059601c12.0597-.954895,20.833756-8.859039,22.013031-19.451614c1.326035-11.910843-4.327316-21.901749-15.140968-25.017334-12.62806-3.638382-25.626076-1.475052-38.773911-2.016067c0,15.614166,0,30.411926.000008,46.20932m299.294205-13.757737c-4.272339,10.198441-8.544678,20.396866-13.098603,31.267441c3.066834,0,5.197602-.000183,7.328339.000061c9.762054.001129,9.653534-.046509,13.631683-9.104919.595398-1.355713,2.696961-2.744019,4.207917-2.872956c4.458435-.380523,8.970184-.136749,13.461059-.13684c8.800141-.000153,8.701721.039734,12.072663,8.377868.602935,1.491333,2.311309,3.439911,3.657409,3.563477c4.746796.43576,9.558045.169494,14.994232.169494-.695587-2.112182-1.10083-3.686676-1.720611-5.17163-6.45697-15.470307-12.926636-30.935349-19.437409-46.383072-4.902893-11.632691-4.931793-11.525009-17.631866-11.529801-2.908203-.001098-4.437256.7883-5.552277,3.588318-3.684906,9.25325-7.669311,18.387238-11.912536,28.232559m100.86383-19.008606c2.159058-2.613891,4.318146-5.227783,6.712097-8.126037-11.583435-5.423279-22.786895-7.345917-34.494384-3.385681-8.318787,2.81398-13.900544,10.276657-13.925537,18.231521-.026459,8.414826,4.018768,13.563904,13.631835,16.780197c5.188294,1.735856,10.634003,2.740891,15.736268,4.675187c1.914947.725982,3.186401,3.149383,4.75122,4.798919-1.944763,1.47403-3.929352,4.237335-5.82669,4.178711-5.536927-.171173-11.032471-1.515594-16.559143-2.294555-1.463868-.20633-3.617493-.66626-4.361664.079986-2.870514,2.878571-5.298554,6.198334-8.291992,9.841004c13.647949,7.314971,27.035064,9.33374,40.799835,3.421325c3.411377-1.465362,6.648071-4.668884,8.624542-7.894714c6.021698-9.828278,1.835388-20.71463-9.442627-24.945603-5.730255-2.149704-11.870453-3.194015-17.645966-5.243484-1.794647-.636856-3.000396-2.933136-4.475769-4.469711c1.729279-1.519959,3.372803-4.195755,5.204804-4.331665c4.533081-.336304,9.245727.056167,13.701385,1.014907c2.585968.556412,4.091401.364975,5.861786-2.330307m375.415528,37.597916c-5.135498-1.126617-10.270996-2.253235-15.828064-3.47232-2.616272,3.203277-5.495057,6.727996-8.68451,10.633026c12.910279,7.036529,25.690369,9.044555,39.011048,4.339325c8.513733-3.007294,13.13092-10.297699,12.886352-18.835175-.214966-7.503891-4.168579-12.24855-13.364807-15.35881-5.344726-1.807694-10.94635-2.872834-16.245178-4.789719-1.787415-.646637-2.998535-2.886398-4.473084-4.39801c1.708863-1.548447,3.327515-4.274292,5.144288-4.413468c4.536132-.347473,9.159179.534409,13.754211.804489c1.474976.086686,3.5625.385499,4.352539-.415725c2.877625-2.918595,5.324951-6.261505,8.227478-9.801789-11.739685-5.601623-23.251953-7.448394-35.216309-3.161209-8.141357,2.917282-13.117736,10.143692-13.09552,18.243561.022583,8.233032,3.983826,13.188934,13.31012,16.486618c2.345947.829483,4.777832,1.416428,7.17157,2.110153c3.511108,1.017578,7.13977,1.757721,10.478454,3.179505c1.350953.575287,2.879822,2.653045,2.848694,4.013122-.031189,1.356995-1.657776,3.243409-3.046936,3.864838-1.879638.84079-4.199951.696442-7.230346.971588M517.685425,232.369888c4.738586.604019,9.477173,1.208039,14.712463,1.875367c2.5719-3.07779,5.525269-6.612107,8.879944-10.62674-13.542053-6.104294-26.527771-8.308914-39.567627-.794952-7.111236,4.097702-9.574951,10.831741-8.61383,18.759964.895233,7.384384,5.993896,11.249206,12.496398,13.413421c5.034424,1.675598,10.281189,2.705963,15.344971,4.303833c2.738098.863983,6.442749,1.546936,5.881714,5.547608-.559509,3.989135-4.239807,4.645385-7.362183,4.33432-5.059265-.504059-10.032562-1.824555-15.068481-2.637024-1.430847-.230835-3.547394-.491394-4.326935.286468-2.865112,2.858887-5.300415,6.148499-8.125366,9.550476c10.933777,6.615021,22.117828,8.157349,33.728973,6.072113c10.727661-1.926483,17.674012-9.331298,18.217957-18.374359.543701-9.038971-4.423035-14.74382-16.22406-18.426986-4.910095-1.532456-9.940857-2.694031-14.799011-4.366364-1.27179-.437805-2.978974-2.199646-2.924958-3.274963.075409-1.500611,1.355957-3.242585,2.613922-4.287903c1.03711-.861878,2.790955-.861344,5.136109-1.354279M304.724854,267.731689c-1.093232-1.225128-2.186432-2.450225-3.198792-3.584716-8.990051,2.934356-16.359924,1.137939-20.873383-4.925507-3.814392-5.124344-3.955535-12.482773-.340301-17.744049c4.381164-6.375931,10.528351-7.800003,21.541321-4.889587c3.393585-4.069809,6.840667-8.203766,10.299804-12.352204-13.384216-10.12854-32.847869-7.953781-43.77597,4.478317-11.398956,12.967698-11.022644,31.961625.879608,44.397477c11.259308,11.764068,30.662506,13.467041,42.832031,3.495666-2.285522-2.778686-4.578125-5.565979-7.364318-8.875397M57.126896,223.280182c-12.578453-7.18071-24.887623-6.847122-37.394489,1.276138c2.531486,3.057434,4.997627,5.752518,7.129816,8.690018c2.176677,2.998779,4.269199,4.148331,8.2451,2.730423c6.244945-2.227112,13.052875.757095,16.909568,6.430939c3.32309,4.888855,3.101017,12.398696-.514122,17.385696-3.758846,5.185242-10.690357,7.570953-16.852462,5.756256-1.387265-.408539-2.73103-.964813-4.19858-1.490234-3.620876,4.333984-7.073586,8.466675-11.49835,13.762848c6.181583,1.940704,11.213354,4.378173,16.461639,5.006134c15.319729,1.833099,28.915611-6.682953,34.477364-20.784821c5.429771-13.767197.80542-28.319656-12.765484-38.763397m271.284542-4.620651c-2.974426,0-5.948822,0-8.99527,0c0,21.293945,0,42.146469,0,62.934097c14.186127,0,27.945862,0,41.836151,0c0-4.846527,0-9.381775,0-14.25827-6.887481,0-13.374511-.177765-19.84552.067627-3.792267.143829-5.363372-.858948-5.157867-4.987671.339233-6.815186.091858-13.659561.091827-20.491623-.000061-7.609451,0-15.218903,0-23.263214-2.729492,0-4.864746,0-7.929321-.000946Z" fill="rgba(255,255,255,0)"/><path d="M813.426086,218.995453c3.594239-.000321,6.738709-.000321,10.229676-.000321c0,20.999527,0,41.70604,0,62.712143-4.642823,0-9.241455,0-14.377442,0c0-8.233978,0-16.613403,0-24.992828-.395752-.122833-.791565-.245666-1.187317-.3685-3.739868,6.870972-7.500793,13.730683-11.209411,20.61847-1.486145,2.760284-2.474915,5.331878-6.774597,5.256439-4.054566-.071137-5.801636-1.626709-7.460266-4.910889-3.577515-7.08374-7.554261-13.965851-12.35608-20.767883c0,8.312958,0,16.625915,0,25.189972-5.22998,0-9.828003,0-14.804809,0c0-20.714447,0-41.41565,0-62.728943c3.993103,0,7.965515-.278397,11.859192.153198c1.33667.148148,2.926819,1.84021,3.635681,3.220139c6.146667,11.965194,12.118835,24.020019,18.47644,36.713974c4.675782-9.008591,9.074585-17.466874,13.456665-25.933838c1.98584-3.837067,3.760437-7.800003,6.004517-11.477829.764648-1.253113,2.672546-1.80867,4.507751-2.683304Z" fill="#05100b"/><path d="M195.339783,270.969971c.000213-17.456116.000213-34.41658.000213-51.968857c4.411301,0,8.382691-.270599,12.283097.137421c1.493744.15628,3.131149,1.613876,4.181945,2.903213c7.774994,9.539963,15.418503,19.187103,23.895188,29.791107c0-11.46672,0-21.795212,0-32.476684c5.943527,0,11.327606,0,17.011352,0c0,20.641739,0,41.236999,0,62.583648-4.278274,0-8.707992.19574-13.098404-.133209-1.143585-.085663-2.322708-1.680756-3.217178-2.797485-7.798126-9.735993-15.535217-19.520874-24.009369-30.196976c0,11.514755,0,21.992905,0,32.828354-5.756714,0-11.004623,0-17.047073,0c0-3.328583,0-6.75174.000229-10.670532Z" fill="#05100b"/><path d="M677.567627,250.930817c-2.476807,17.700073-10.666809,27.915191-25.031189,31.609375-17.484131,4.496521-36.035278-6.489258-40.243958-23.832184-4.30017-17.720047,6.300904-35.405045,23.790772-39.68837c18.134277-4.441162,36.34314,6.343338,40.513306,24.076904.568298,2.416733.673706,4.942337.971069,7.834275M642.02063,234.178848c-1.278992.352234-2.601868.592606-3.829895,1.074723-8.383057,3.291229-12.649658,12.660644-9.534363,20.835784c3.172791,8.326081,12.295593,12.66034,20.739441,9.853364c7.712769-2.563935,12.026184-10.015107,10.746765-18.564484-1.167297-7.799683-8.104065-13.11879-18.121948-13.199387Z" fill="#05100b"/><path d="M743.267334,268.177917c-9.46814,13.349-23.869629,18.30896-38.750244,13.598298-12.739136-4.032746-22.280579-17.084259-22.407654-30.650864-.125977-13.452713,8.621338-26.171234,21.289612-30.954849c12.910827-4.875199,27.716675-1.322419,36.511291,8.761276c9.704956,11.12735,10.989746,25.250488,3.356995,39.246139m-44.186829-15.168518c.768372,2.006958,1.276001,4.167237,2.350525,5.994141c4.464844,7.591064,14.594727,10.042145,22.262268,5.539825c8.001038-4.69815,10.565918-14.672332,5.788025-22.508026-3.854309-6.320968-11.507202-9.323272-18.56549-7.28334-7.801575,2.25473-11.869141,8.207703-11.835328,18.2574Z" fill="#05100b"/><path d="M550.852905,243c-.000061-8.123657-.000061-15.74733-.000061-24.505356c12.460083.557617,24.608948.288696,36.507141,1.886521c9.818848,1.318573,15.658814,8.437515,17.178772,18.307312c1.430664,9.289993-1.572143,17.013427-9.491089,22.514801-.654663.454742-1.28833.939636-2.125183,1.552002c4.315552,6.273437,8.508545,12.368743,13.240601,19.24765-6.295898,0-11.711853.162567-17.105225-.114594-1.3432-.069031-2.941833-1.297455-3.852661-2.445495-2.267334-2.857789-4.507324-5.817078-6.203674-9.028565-2.333801-4.418487-5.637085-5.749878-10.958679-4.177215c0,4.879425,0,10.075103,0,15.5083-5.939759,0-11.191346,0-17.18982,0c0-12.783783,0-25.514557-.000122-38.745361m35.722901-5.811066c-5.263489-6.02742-12.004883-3.693344-18.384034-3.852508c0,6.177871,0,11.752487,0,17.780609c3.420777,0,6.539246.057129,9.655091-.010986c8.483703-.185456,11.846557-5.100525,8.728943-13.917115Z" fill="#05100b"/><path d="M157.00885,236.130615c-.001968,2.453949-.001968,4.432511-.001968,7.116425c8.006469,0,15.705307,0,23.634353,0c0,4.794143,0,8.874267,0,13.472687-7.809265,0-15.389877,0-23.297409,0c0,3.907287,0,7.305481,0,11.38916c5.109833,0,10.205109,0,15.300385,0c4.951446,0,9.902893,0,15.101211,0c0,4.783203,0,9.032165,0,13.590912-15.834945,0-31.545059,0-47.503997,0c0-20.789429,0-41.37941,0-62.338227c15.391601,0,30.76889,0,46.456909,0c0,4.262253,0,8.516388,0,13.530075-8.544846,0-17.135453-.008911-25.726013.006852-1.928284.003524-4.291123-.529847-3.963471,3.232116Z" fill="#05100b"/><path d="M78.993454,263.998627c-.000008-15.297577-.000008-30.095337-.000008-45.709503c13.147835.541015,26.145851-1.622315,38.773911,2.016067c10.813652,3.115585,16.467003,13.106491,15.140968,25.017334-1.179275,10.592575-9.953331,18.496719-22.013031,19.451614-4.621612.365937-9.296455.059601-14.520035.059601c0,5.445923,0,10.510376,0,15.939057-5.94831,0-11.333099,0-17.381805,0c0-5.41095,0-10.842652,0-16.77417m20.64048-30.864319c-1.247307.83847-3.51265,1.609283-3.573608,2.526596-.347092,5.22319-.168305,10.481354-.168305,16.414413c4.701897-.291504,8.806153-.318298,12.842682-.854766c4.875351-.647904,7.046837-4.012207,7.215485-8.669053.165413-4.567184-2.039261-7.708435-6.556565-8.64331-2.876358-.595291-5.887634-.538696-9.759689-.77388Z" fill="#05100b"/><path d="M378.474548,250.407928c4.056336-9.512542,8.040741-18.64653,11.725647-27.89978c1.115021-2.800018,2.644074-3.589416,5.552277-3.588318c12.700073.004792,12.728973-.10289,17.631866,11.529801c6.510773,15.447723,12.980439,30.912765,19.437409,46.383072.619781,1.484954,1.025024,3.059448,1.720611,5.17163-5.436187,0-10.247436.266266-14.994232-.169494-1.3461-.123566-3.054474-2.072144-3.657409-3.563477-3.370942-8.338134-3.272522-8.378021-12.072663-8.377868-4.490875.000091-9.002624-.243683-13.461059.13684-1.510956.128937-3.612519,1.517243-4.207917,2.872956-3.978149,9.05841-3.869629,9.106048-13.631683,9.104919-2.130737-.000244-4.261505-.000061-7.328339-.000061c4.553925-10.870575,8.826264-21.069,13.285492-31.60022m27.282654,6.145173c.372681-.752396,1.239044-1.682999,1.041718-2.22963-1.981598-5.489685-4.137848-10.916336-6.771607-17.721603-2.785248,7.403152-5.043396,13.405334-7.531677,20.019165c4.818573,0,8.612457,0,13.261566-.067932Z" fill="#05100b"/><path d="M478.918823,232.009247c-1.537719,2.418136-3.043152,2.609573-5.62912,2.053161-4.455658-.95874-9.168304-1.351211-13.701385-1.014907-1.832001.13591-3.475525,2.811706-5.204804,4.33168c1.475373,1.53656,2.681122,3.83284,4.475769,4.469696c5.775513,2.049469,11.915711,3.09378,17.645966,5.243484c11.278015,4.230973,15.464325,15.117325,9.442627,24.945603-1.976471,3.22583-5.213165,6.429352-8.624542,7.894714-13.764771,5.912415-27.151886,3.893646-40.799835-3.421325c2.993438-3.64267,5.421478-6.962433,8.291992-9.841004.744171-.746246,2.897796-.286316,4.361664-.079986c5.526672.778961,11.022216,2.123382,16.559143,2.294555c1.897338.058624,3.881927-2.704681,5.82669-4.178711-1.564819-1.649536-2.836273-4.072937-4.75122-4.798919-5.102265-1.934296-10.547974-2.939331-15.736268-4.675187-9.613067-3.216293-13.658294-8.365371-13.631835-16.780197.024993-7.954864,5.60675-15.417541,13.925537-18.231521c11.707489-3.960236,22.910949-2.037598,34.494384,3.385681-2.393951,2.898254-4.553039,5.512146-6.944763,8.403183Z" fill="#05100b"/><path d="M855.016602,269.331604c2.58081-.276733,4.901123-.132385,6.780761-.973175c1.38916-.621429,3.015747-2.507843,3.046936-3.864838.031128-1.360077-1.497741-3.437835-2.848694-4.013122-3.338684-1.421784-6.967346-2.161927-10.478454-3.179505-2.393738-.693725-4.825623-1.28067-7.17157-2.110153-9.326294-3.297684-13.287537-8.253586-13.31012-16.486618-.022216-8.099869,4.954163-15.326279,13.09552-18.243561c11.964356-4.287185,23.476624-2.440414,35.216309,3.161209-2.902527,3.540284-5.349853,6.883194-8.227478,9.801789-.790039.801224-2.877563.502411-4.352539.415725-4.595032-.27008-9.218079-1.151962-13.754211-.804489-1.816773.139176-3.435425,2.865021-5.144288,4.413437c1.474549,1.511643,2.685669,3.751404,4.473084,4.398041c5.298828,1.916885,10.900452,2.982025,16.245178,4.789719c9.196228,3.11026,13.149841,7.854919,13.364807,15.35881.244568,8.537476-4.372619,15.827881-12.886352,18.835175-13.320679,4.70523-26.100769,2.697204-39.011048-4.339325c3.189453-3.90503,6.068238-7.429749,8.68451-10.633026c5.557068,1.219085,10.692566,2.345703,16.277649,3.473907Z" fill="#05100b"/><path d="M517.230957,232.425537c-1.890686.437286-3.644531.436752-4.681641,1.29863-1.257965,1.045318-2.538513,2.787292-2.613922,4.287903-.054016,1.075317,1.653168,2.837158,2.924958,3.274963c4.858154,1.672333,9.888916,2.833908,14.799011,4.366364c11.801025,3.683166,16.767761,9.388015,16.22406,18.426986-.543945,9.043061-7.490296,16.447876-18.217957,18.374359-11.611145,2.085236-22.795196.542908-33.728973-6.072113c2.824951-3.401977,5.260254-6.691589,8.125366-9.550476.779541-.777862,2.896088-.517303,4.326935-.286468c5.035919.812469,10.009216,2.132965,15.068481,2.637024c3.122376.311065,6.802674-.345185,7.362183-4.33432.561035-4.000672-3.143616-4.683625-5.881714-5.547608-5.063782-1.59787-10.310547-2.628235-15.344971-4.303833-6.502502-2.164215-11.601165-6.029037-12.496398-13.413421-.961121-7.928223,1.502594-14.662262,8.61383-18.759964c13.039856-7.513962,26.025574-5.309342,39.567627.794952-3.354675,4.014633-6.308044,7.54895-8.879944,10.62674-5.23529-.667328-9.973877-1.271348-15.166931-1.819718Z" fill="#05100b"/><path d="M304.971649,267.992737c2.539398,3.04837,4.832001,5.835663,7.117523,8.614349-12.169525,9.971375-31.572723,8.268402-42.832031-3.495666-11.902252-12.435852-12.278564-31.429779-.879608-44.397477c10.928101-12.432098,30.391754-14.606857,43.77597-4.478317-3.459137,4.148438-6.906219,8.282395-10.299804,12.352204-11.01297-2.910416-17.160157-1.486344-21.541321,4.889587-3.615234,5.261276-3.474091,12.619705.340301,17.744049c4.513459,6.063446,11.883332,7.859863,20.873383,4.925507c1.01236,1.134491,2.10556,2.359588,3.445587,3.845764Z" fill="#05100b"/><path d="M57.419983,223.498184C70.6978,233.723923,75.322151,248.276382,69.89238,262.043579c-5.561753,14.101868-19.157635,22.61792-34.477364,20.784821-5.248285-.627961-10.280056-3.06543-16.461639-5.006134c4.424764-5.296173,7.877474-9.428864,11.49835-13.762848c1.46755.525421,2.811315,1.081695,4.19858,1.490234c6.162105,1.814697,13.093616-.571014,16.852462-5.756256c3.615139-4.987,3.837212-12.496841.514122-17.385696-3.856693-5.673844-10.664623-8.658051-16.909568-6.430939-3.975901,1.417908-6.068423.268356-8.2451-2.730423-2.132189-2.9375-4.59833-5.632584-7.129816-8.690018c12.506866-8.12326,24.816036-8.456848,37.687576-1.058136Z" fill="#05100b"/><path d="M328.876099,218.660004c2.599914.000473,4.735168.000473,7.46466.000473c0,8.044311-.000061,15.653763,0,23.263214.000031,6.832062.247406,13.676437-.091827,20.491623-.205505,4.128723,1.3656,5.1315,5.157867,4.987671c6.471009-.245392,12.958039-.067627,19.84552-.067627c0,4.876495,0,9.411743,0,14.25827-13.890289,0-27.650024,0-41.836151,0c0-20.787628,0-41.640152,0-62.934097c3.046448,0,6.020844,0,9.459931.000473Z" fill="#05100b"/><path d="M642.432068,234.146118c9.606445.113327,16.543213,5.432434,17.71051,13.232117c1.279419,8.549377-3.033996,16.000549-10.746765,18.564484-8.443848,2.806976-17.56665-1.527283-20.739441-9.853364-3.115295-8.17514,1.151306-17.544555,9.534363-20.835784c1.228027-.482117,2.550903-.722489,4.241333-1.107453Z" fill="rgba(253,253,255,0)"/><path d="M699.046753,252.590836c-.000061-9.631134,4.067505-15.584107,11.86908-17.838837c7.058288-2.039932,14.711181.962372,18.56549,7.28334c4.777893,7.835694,2.213013,17.809876-5.788025,22.508026-7.667541,4.50232-17.797424,2.051239-22.262268-5.539825-1.074524-1.826904-1.582153-3.987183-2.384277-6.412704Z" fill="rgba(253,252,255,0)"/><path d="M586.755737,237.540344c2.937683,8.46518-.425171,13.380249-8.908874,13.565705-3.115845.068115-6.234314.010986-9.655091.010986c0-6.028122,0-11.602738,0-17.780609c6.379151.159164,13.120545-2.174912,18.563965,4.203918Z" fill="none"/><path d="M100.094574,233.134048c3.411415.235444,6.422691.178849,9.299049.77414c4.517304.934875,6.721978,4.076126,6.556565,8.64331-.168648,4.656846-2.340134,8.021149-7.215485,8.669053-4.036529.536468-8.140785.563262-12.842682.854766c0-5.933059-.178787-11.191223.168305-16.414413.060958-.917313,2.326301-1.688126,4.034248-2.526856Z" fill="none"/><path d="M405.32959,256.587067c-4.221497.033966-8.015381.033966-12.833954.033966c2.488281-6.613831,4.746429-12.616013,7.531677-20.019165c2.633759,6.805267,4.790009,12.231918,6.771607,17.721603.197326.546631-.669037,1.477234-1.46933,2.263596Z" fill="none"/></svg>
